<?xml version="1.0" encoding="UTF-8"?>
<svg id="Camada_1" data-name="Camada 1" xmlns="http://www.w3.org/2000/svg" xmlns:xlink="http://www.w3.org/1999/xlink" viewBox="0 0 350.92 210">
  <defs>
    <style>
      .cls-1 {
        clip-path: url(#clippath-21);
      }

      .cls-2 {
        clip-path: url(#clippath-6);
      }

      .cls-3 {
        clip-path: url(#clippath-7);
      }

      .cls-4 {
        clip-path: url(#clippath-17);
      }

      .cls-5 {
        clip-path: url(#clippath-15);
      }

      .cls-6 {
        clip-path: url(#clippath-18);
      }

      .cls-7 {
        clip-path: url(#clippath-4);
      }

      .cls-8 {
        clip-path: url(#clippath-22);
      }

      .cls-9 {
        clip-path: url(#clippath-9);
      }

      .cls-10 {
        clip-path: url(#clippath-10);
      }

      .cls-11 {
        fill: #fff;
      }

      .cls-12 {
        clip-path: url(#clippath-11);
      }

      .cls-13 {
        fill: none;
      }

      .cls-14 {
        clip-path: url(#clippath-5);
      }

      .cls-15 {
        clip-path: url(#clippath-20);
      }

      .cls-16 {
        clip-path: url(#clippath-8);
      }

      .cls-17 {
        clip-path: url(#clippath-3);
      }

      .cls-18 {
        clip-path: url(#clippath-12);
      }

      .cls-19 {
        clip-path: url(#clippath-14);
      }

      .cls-20 {
        clip-path: url(#clippath-19);
      }

      .cls-21 {
        clip-path: url(#clippath-16);
      }

      .cls-22 {
        clip-path: url(#clippath-13);
      }
    </style>
    <clipPath id="clippath-3">
      <rect class="cls-13" width="802" height="210"/>
    </clipPath>
    <clipPath id="clippath-4">
      <rect class="cls-13" width="802" height="210"/>
    </clipPath>
    <clipPath id="clippath-5">
      <rect class="cls-13" width="802" height="210"/>
    </clipPath>
    <clipPath id="clippath-6">
      <rect class="cls-13" width="802" height="210"/>
    </clipPath>
    <clipPath id="clippath-7">
      <rect class="cls-13" width="802" height="210"/>
    </clipPath>
    <clipPath id="clippath-8">
      <rect class="cls-13" width="802" height="210"/>
    </clipPath>
    <clipPath id="clippath-9">
      <rect class="cls-13" width="802" height="210"/>
    </clipPath>
    <clipPath id="clippath-10">
      <rect class="cls-13" width="802" height="210"/>
    </clipPath>
    <clipPath id="clippath-11">
      <rect class="cls-13" width="802" height="210"/>
    </clipPath>
    <clipPath id="clippath-12">
      <rect class="cls-13" width="802" height="210"/>
    </clipPath>
    <clipPath id="clippath-13">
      <rect class="cls-13" width="802" height="210"/>
    </clipPath>
    <clipPath id="clippath-14">
      <rect class="cls-13" width="802" height="210"/>
    </clipPath>
    <clipPath id="clippath-15">
      <rect class="cls-13" width="802" height="210"/>
    </clipPath>
    <clipPath id="clippath-16">
      <rect class="cls-13" width="802" height="210"/>
    </clipPath>
    <clipPath id="clippath-17">
      <rect class="cls-13" width="802" height="210"/>
    </clipPath>
    <clipPath id="clippath-18">
      <rect class="cls-13" width="802" height="210"/>
    </clipPath>
    <clipPath id="clippath-19">
      <rect class="cls-13" width="802" height="210"/>
    </clipPath>
    <clipPath id="clippath-20">
      <rect class="cls-13" width="802" height="210"/>
    </clipPath>
    <clipPath id="clippath-21">
      <rect class="cls-13" width="802" height="210"/>
    </clipPath>
    <clipPath id="clippath-22">
      <rect class="cls-13" width="802" height="210"/>
    </clipPath>
  </defs>
  <g class="cls-17">
    <path class="cls-11" d="M199.34,91.93l38.87,5.12v-2.57l-38.87-10.42v7.87Z"/>
  </g>
  <g class="cls-7">
    <path class="cls-11" d="M199.34,74.95v6.97l38.87,10.43v-2.84l-35.12-14.56h-3.74Z"/>
  </g>
  <g class="cls-14">
    <path class="cls-11" d="M238.21,77.39v-2.44h-3.18l3.18,2.44Z"/>
  </g>
  <g class="cls-2">
    <path class="cls-11" d="M228.26,78.79l-6.65-3.84h-15.69l32.29,13.38v-3.8l-9.95-5.75Z"/>
  </g>
  <g class="cls-3">
    <path class="cls-11" d="M223.79,74.95l14.42,8.33v-4.52l-4.96-3.81h-9.46Z"/>
  </g>
  <g class="cls-16">
    <path class="cls-11" d="M201.98,128.33h1.1l27.81-11.52,1.68-4.36-26.82,7.19-3.77,8.69Z"/>
  </g>
  <g class="cls-9">
    <path class="cls-11" d="M226.44,128.33l.76-1.97-3.41,1.97h2.65Z"/>
  </g>
  <g class="cls-10">
    <path class="cls-11" d="M221.61,128.33l6.22-3.59,2.52-6.53-24.43,10.12h15.69Z"/>
  </g>
  <g class="cls-12">
    <path class="cls-11" d="M199.34,97.77h15.9l-1.44,3.33h23.16l1.14-2.96-38.76-5.11v4.75Z"/>
  </g>
  <g class="cls-18">
    <path class="cls-11" d="M206.81,117.22l26.69-7.16,1.3-3.38-24.84,3.27-3.15,7.27Z"/>
  </g>
  <g class="cls-22">
    <path class="cls-11" d="M213.33,102.18l-2.86,6.61,24.79-3.26,1.29-3.34h-23.21Z"/>
  </g>
  <g class="cls-19">
    <path class="cls-11" d="M277.69,87.48l.42.25-5.32,9.22c.29.24.55.5.79.78l9.21-5.32.25.43,9.24-5.34c-.97-1.59-2.09-3.08-3.36-4.44l-7.53,7.53-1.46-1.46,7.53-7.53c-1.36-1.26-2.85-2.39-4.45-3.36l-4.63,8.02-.7,1.22Z"/>
  </g>
  <g class="cls-5">
    <path class="cls-11" d="M285.24,98.33l-.54-2,10.3-2.76c-.55-1.79-1.29-3.51-2.18-5.13l-9.24,5.34.24.42-9.21,5.32c.13.35.22.71.29,1.08h10.64v.49h10.66c-.04-1.9-.27-3.75-.67-5.53l-10.29,2.76Z"/>
  </g>
  <g class="cls-21">
    <path class="cls-11" d="M282.8,110.87l-9.21-5.32c-.24.29-.5.55-.79.79l5.32,9.22-.42.25,5.33,9.25c1.6-.97,3.09-2.09,4.45-3.35l-7.53-7.54,1.46-1.46,7.53,7.54c1.26-1.36,2.39-2.85,3.36-4.45l-9.24-5.34-.25.43Z"/>
  </g>
  <g class="cls-4">
    <path class="cls-11" d="M285.54,102.67h-10.64c-.06.38-.16.73-.29,1.08l9.21,5.32-.24.43,9.24,5.34c.89-1.61,1.62-3.33,2.18-5.12l-10.29-2.76.53-2,10.29,2.76c.41-1.78.64-3.63.67-5.53h-10.66v.49Z"/>
  </g>
  <g class="cls-6">
    <path class="cls-11" d="M276.32,116.59l-5.32-9.22c-.35.12-.71.22-1.08.29v10.65h-.49v10.67c1.9-.04,3.75-.27,5.53-.67l-2.76-10.3,2-.54,2.76,10.3c1.79-.55,3.51-1.29,5.12-2.18l-5.33-9.25-.43.25Z"/>
  </g>
  <g class="cls-20">
    <path class="cls-11" d="M267.6,107.59c-.16-.04-.31-.07-.46-.12.15.05.31.09.46.12M263,103.14s.02.09.04.14c-.01-.05-.02-.09-.04-.14M263.02,100.03s-.01.05-.02.07c0-.03.01-.05.02-.07M267.46,95.72c-.08.02-.16.04-.24.06.08-.02.16-.04.24-.06M270.65,95.81c-.14-.04-.28-.07-.42-.11.14.04.28.07.42.11M267.86,107.65c-.05-.01-.11-.03-.16-.04.39.07.78.12,1.19.12,3.36,0,6.09-2.73,6.09-6.09,0-2.71-1.77-5.01-4.21-5.8.08.03.16.05.24.08l5.32-9.22.43.25,4.96-8.6.37-.64c-1.61-.89-3.33-1.63-5.12-2.18l-2.76,10.3-2-.54,2.76-10.3c-1.78-.41-3.63-.63-5.52-.67v10.67h.49v10.65s.08.02.12.03c-.38-.07-.76-.11-1.16-.11s-.75.04-1.11.11c.03,0,.05-.01.08-.02v-10.65h.49v-10.67c-1.89.04-3.74.26-5.52.67l2.76,10.3-2,.54-2.76-10.3c-1.79.55-3.51,1.29-5.12,2.18l1.62,2.82,3.71,6.43.42-.25,5.32,9.23s.08-.03.12-.04c-.7.24-1.35.6-1.91,1.07l-5.32-9.22.42-.25-5.34-9.25c-1.59.97-3.08,2.09-4.44,3.36l7.53,7.53-1.46,1.46-7.53-7.53c-1.26,1.36-2.39,2.85-3.35,4.45l9.24,5.34.25-.42,9.21,5.32c-.45.54-.8,1.16-1.05,1.84,0-.02.01-.04.02-.06l-9.22-5.32.25-.43-9.24-5.34c-.89,1.61-1.62,3.33-2.18,5.12l10.29,2.76-.54,2-10.29-2.76c-.41,1.79-.64,3.63-.67,5.53h10.66v-.49h10.64s0,0,0-.01c-.06.34-.1.69-.1,1.04s.04.71.1,1.06c0,0,0-.01,0-.03h-10.64v-.49h-10.66c.04,1.9.27,3.75.67,5.53l10.29-2.76.54,2-10.29,2.76c.55,1.8,1.29,3.51,2.18,5.13l9.24-5.34-.25-.43,9.22-5.32s-.02-.06-.03-.09c.27.75.68,1.44,1.2,2.03-.05-.05-.09-.1-.14-.15l-9.22,5.32-.25-.42-9.24,5.34c.97,1.59,2.09,3.08,3.35,4.45l7.53-7.54,1.46,1.46-7.53,7.54c1.36,1.26,2.85,2.39,4.44,3.35l5.34-9.25-.42-.25,5.32-9.22c-.12-.1-.23-.21-.34-.32.66.64,1.46,1.13,2.36,1.43-.07-.03-.15-.05-.23-.08l-5.32,9.22-.42-.25-5.33,9.25c1.61.89,3.33,1.63,5.12,2.18l2.76-10.3,2,.54-2.76,10.3c1.78.41,3.63.63,5.52.67v-10.67h-.49v-10.65Z"/>
  </g>
  <g class="cls-15">
    <path class="cls-11" d="M100.6,75.44h-9.86c.61,3.29.91,6.48.91,9.57v30.89c-1.17,2.09-2.59,3.73-4.29,4.91-2.65,1.85-5.93,2.77-9.82,2.77-2.73,0-5.09-.54-7.09-1.6-2-1.06-3.62-3.14-4.86-6.22-1.24-3.09-1.85-7.47-1.85-13.14v-17.61c0-2.84.25-6.02.76-9.57h-9.86c.71,3.14,1.06,6.32,1.06,9.57v18.37c0,9.32,1.82,15.86,5.46,19.63,3.64,3.77,8.32,5.66,14.03,5.66,4.75,0,8.94-1.1,12.56-3.31,1.51-.92,2.81-2.02,3.91-3.3v5.77h8.95c-.61-3.29-.91-6.48-.91-9.57v-33.25c0-3.09.3-6.28.91-9.57"/>
  </g>
  <g class="cls-1">
    <path class="cls-11" d="M132.69,80.07c3.19,0,6.62.28,10.32.84l-1.75-5.47h-29.28c.61,3.29.91,6.48.91,9.57v33.25c0,3.09-.31,6.28-.91,9.57h10.16c-.81-3.29-1.21-6.48-1.21-9.57v-14.27h6.22c3.95,0,7.86.2,11.76.61l1.75-5.54c-4.05.3-7.97.46-11.76.46h-7.97v-19.44h11.76Z"/>
  </g>
  <g class="cls-8">
    <path class="cls-11" d="M162.88,122.1c-2.73-1.75-4.82-4.33-6.26-7.75-1.45-3.42-2.16-7.61-2.16-12.57v-.45c0-5.01.73-9.21,2.2-12.61,1.47-3.39,3.57-5.93,6.3-7.63,2.73-1.7,5.97-2.55,9.71-2.55,3.04,0,5.84.52,8.42,1.56,2.58,1.04,4.91,2.52,6.98,4.44l-.91-7.21c-4.35-2.03-9.06-3.04-14.11-3.04-5.56,0-10.43,1.18-14.6,3.53-4.17,2.35-7.38,5.58-9.6,9.68-2.23,4.1-3.34,8.71-3.34,13.82v.45c0,5.16,1.11,9.8,3.34,13.89,2.22,4.1,5.42,7.34,9.6,9.72,4.17,2.38,9.07,3.57,14.68,3.57,5.1,0,9.79-1.01,14.04-3.03l.91-7.14c-4.45,3.95-9.56,5.92-15.32,5.92-3.84,0-7.13-.87-9.86-2.62"/>
  </g>
</svg>