<?xml version="1.0" encoding="UTF-8"?>
<svg id="Camada_1" data-name="Camada 1" xmlns="http://www.w3.org/2000/svg" viewBox="0 0 335.69 586.6">
  <defs>
    <style>
      .cls-1, .cls-2 {
        fill: #fff;
      }

      .cls-2 {
        fill-rule: evenodd;
      }
    </style>
  </defs>
  <path class="cls-1" d="M16.08,533.43c.03,7.64.64,14.17,1.89,19.58,1.22,5.38,2.89,9.89,5.01,13.53,2.12,3.66,4.54,6.68,7.27,9.07,2.95,2.6,6.02,4.65,9.24,6.16,3.24,1.49,6.45,2.58,9.63,3.26,3.18.71,6.21,1.14,9.02,1.32,2.84.19,5.33.27,7.46.24,3.45.03,7.01-.24,10.67-.82,3.66-.58,7.38-1.7,11.14-3.34,3.77-1.67,7.53-4.09,11.3-7.3,3.31-2.89,5.99-6.15,8.01-9.84,2.02-3.66,3.53-7.59,4.56-11.78,1.04-4.19,1.73-8.51,2.07-12.97.35-4.43.5-8.89.48-13.32v-29.35c0-3.4,0-6.26.02-8.57,0-2.28.03-4.22.06-5.75.03-1.54.05-2.87.08-3.98.05-1.09.11-2.15.16-3.13.11-2.76.61-4.88,1.46-6.34.85-1.43,2.33-2.36,4.43-2.74.93-.16,1.7-.29,2.36-.37.66-.08,1.4-.1,2.25-.1.95,0,1.67-.11,2.15-.29.48-.21.72-.61.72-1.14s-.26-.93-.82-1.14c-.56-.21-1.4-.29-2.52-.29-1.59,0-3.32.03-5.17.08-1.88.02-3.71.11-5.52.16-1.78.05-3.35.11-4.67.16-1.35.05-2.28.08-2.79.08-.05,0-.66-.03-1.78-.08-1.12-.06-2.57-.11-4.38-.16-1.8-.05-3.77-.13-5.89-.16-2.1-.06-4.19-.08-6.26-.08-1.11-.03-1.94.08-2.49.29-.56.21-.85.58-.85,1.14s.24.93.69,1.14c.48.18,1.14.29,2.01.29.61,0,1.27,0,1.99.05.72.03,1.41.08,2.07.16.69.05,1.25.16,1.67.26,1.72.34,3.08.9,4.03,1.64.98.72,1.65,1.7,2.07,2.92.4,1.19.66,2.71.74,4.51.08.98.13,2.04.16,3.13.05,1.12.08,2.44.11,3.98,0,1.54.02,3.47.02,5.75.03,2.31.03,5.17.03,8.57v32.21c.02,4.11-.05,8.06-.21,11.86-.16,3.79-.53,7.37-1.12,10.74-.58,3.37-1.51,6.47-2.76,9.31-1.27,2.84-2.97,5.36-5.15,7.56-2.15,2.12-4.46,3.79-6.98,5.07-2.5,1.25-5.02,2.15-7.59,2.71-2.57.56-5.04.85-7.4.82-1.8.03-3.79-.11-5.97-.37-2.18-.3-4.43-.9-6.79-1.86-2.36-.93-4.72-2.36-7.14-4.3-1.96-1.56-3.69-3.42-5.23-5.57-1.54-2.12-2.84-4.72-3.9-7.75-1.09-3.02-1.88-6.66-2.44-10.88-.56-4.24-.85-9.23-.85-14.96v-34.6c0-3.4,0-6.26.03-8.57,0-2.28.02-4.22.05-5.75,0-1.54.05-2.87.08-3.98.05-1.09.11-2.15.16-3.13.11-2.76.61-4.88,1.46-6.34.85-1.43,2.34-2.36,4.43-2.74.93-.16,1.69-.29,2.36-.37.66-.08,1.41-.1,2.25-.1.8,0,1.43-.11,1.88-.29.43-.21.67-.61.67-1.14s-.29-.93-.85-1.14c-.58-.21-1.46-.29-2.65-.29-1.46,0-3.1.03-4.94.08-1.83.02-3.69.11-5.57.16-1.88.05-3.61.11-5.2.16-1.59.05-2.89.08-3.87.08-1.65,0-3.72-.06-6.26-.13-2.55-.08-5.3-.16-8.25-.21-2.97-.08-5.86-.13-8.73-.13-1.19-.03-2.07.08-2.65.29-.56.21-.85.58-.85,1.14s.24.93.69,1.14c.48.18,1.14.29,2.02.29,1.17,0,2.31.03,3.48.1,1.14.08,2.07.21,2.73.37,1.72.34,3.08.9,4.03,1.64.95.72,1.64,1.7,2.07,2.92.4,1.19.67,2.71.74,4.51.05.98.11,2.04.16,3.13.03,1.12.08,2.44.08,3.98.02,1.54.05,3.47.05,5.75.02,2.31.02,5.17.02,8.57v35.55ZM171.03,525.31c0-.56.08-.93.26-1.14.16-.21.45-.32.85-.29h3.1c1.49,0,3.24,0,5.2.03,1.99.03,4.01.03,6.02.08,2.04.03,3.87.08,5.52.13,1.65.05,2.89.13,3.72.24,1.64.24,3.02.67,4.11,1.28,1.11.61,1.99,1.32,2.65,2.12.64.8,1.09,1.57,1.35,2.34.32.98.56,1.88.72,2.76.16.88.24,1.59.24,2.17s.08,1.09.29,1.54c.19.42.51.66.98.69.77-.03,1.22-.37,1.41-.98.16-.61.21-1.3.19-2.04,0-.32.03-.93.05-1.83.03-.93.08-1.99.16-3.21.05-1.22.1-2.42.18-3.58.08-1.17.16-2.17.24-3,.26-2.52.53-4.64.82-6.42.27-1.78.43-2.92.45-3.45,0-.95-.32-1.43-.96-1.43-.45,0-.82.16-1.09.42-.29.29-.61.69-.98,1.17-.8,1-1.75,1.72-2.89,2.15-1.12.43-2.44.66-3.95.72-1.12.08-2.23.13-3.4.13-1.17.03-2.42.03-3.77.03l-20.38.16c-.48,0-.77-.13-.93-.37-.13-.24-.21-.58-.19-1.06v-39.8c0-.88.11-1.46.34-1.78.24-.32.61-.48,1.09-.45l24.52.48c2.02.05,3.74.34,5.17.8,1.43.48,2.57,1.09,3.45,1.78.9.72,1.51,1.43,1.89,2.2.45,1.14.74,2.28.85,3.37.08,1.12.13,2.02.11,2.68.08.87.21,1.51.45,1.93.21.4.61.61,1.14.61.56-.03.93-.24,1.17-.63.21-.43.37-.96.42-1.59.08-.53.16-1.38.24-2.6.08-1.22.16-2.55.21-3.98.08-1.43.13-2.73.21-3.9.06-1.17.11-1.99.13-2.42.26-2.04.53-3.61.82-4.72.26-1.09.42-1.91.45-2.44,0-.4-.1-.74-.32-1.01-.21-.26-.48-.42-.8-.42-.4.03-.8.13-1.22.35-.4.24-.85.43-1.33.61-.77.21-1.7.37-2.73.42-1.03.08-2.31.13-3.79.21-.63.03-1.96.06-3.95.06-1.99.03-4.4.05-7.21.05-2.84.03-5.81.03-8.94.03s-6.18.03-9.15.03h-12.76c-1.14,0-2.57-.03-4.3-.11-1.73-.06-3.64-.13-5.73-.21-2.1,0-4.24-.03-6.45-.08-2.2-.06-4.35-.08-6.45-.08-1.19-.03-2.1.08-2.73.32-.61.21-.93.64-.93,1.28.03.48.26.8.77.98.48.21,1.14.29,1.94.29,1.17,0,2.31.03,3.47.1,1.14.08,2.07.21,2.73.37,1.72.37,3.08.9,4.03,1.64.95.74,1.64,1.7,2.07,2.92.4,1.22.66,2.71.75,4.51.05.98.1,2.04.16,3.13.03,1.12.08,2.44.11,3.98,0,1.54.03,3.47.03,5.78.02,2.28.02,5.15.02,8.54v40.33c.03,7.67-.02,14.41-.11,20.17-.08,5.78-.32,10.37-.69,13.74-.19,1.54-.45,2.94-.77,4.19-.32,1.22-.77,2.26-1.38,3.03-.58.8-1.41,1.33-2.47,1.54-.72.16-1.54.32-2.5.45-.95.11-2.04.19-3.24.19-.88,0-1.49.11-1.86.35-.37.21-.53.53-.53.93,0,.61.29,1.03.85,1.27.56.21,1.38.32,2.49.32,1.54,0,3.26-.02,5.12-.08,1.88-.05,3.79-.11,5.7-.16,1.91-.06,3.69-.11,5.33-.16,1.65-.05,3-.08,4.06-.08,1.41,0,3.37.05,5.89.13,2.49.08,5.34.13,8.49.21,3.16.08,6.45.13,9.82.13,1.2,0,2.07-.13,2.65-.37.56-.27.85-.66.85-1.22.03-.4-.18-.72-.58-.93-.4-.24-1.12-.35-2.12-.35-.77,0-1.62-.03-2.55-.08-.95-.08-1.91-.16-2.87-.24-.93-.1-1.78-.21-2.55-.32-1.56-.21-2.79-.74-3.63-1.54-.85-.77-1.43-1.8-1.8-3.03-.37-1.24-.63-2.65-.77-4.19-.37-3.37-.61-7.96-.69-13.74-.08-5.76-.13-12.5-.11-20.17v-12.89ZM299.4,586.59c2.57,0,5.2-.08,7.88-.21,2.68-.16,5.3-.37,7.88-.66,2.57-.29,4.96-.69,7.16-1.14,2.2-.45,4.11-1.01,5.73-1.64.9-.35,1.59-.72,2.1-1.09.53-.37.93-.82,1.22-1.38.29-.53.58-1.25.82-2.15.32-1.11.64-2.47.98-4.09.32-1.62.64-3.34.93-5.15.32-1.8.58-3.55.82-5.22.24-1.67.43-3.1.56-4.3.13-1.19.21-2.02.21-2.42,0-.66-.08-1.22-.29-1.67-.21-.45-.58-.69-1.14-.72-.61-.03-1.06.18-1.33.63-.26.45-.53,1.3-.74,2.55-.21.98-.58,2.1-1.09,3.32-.5,1.24-1.11,2.49-1.86,3.77-.74,1.25-1.56,2.39-2.47,3.42-2.1,2.41-4.51,4.27-7.22,5.57-2.73,1.3-5.89,2.18-9.47,2.65-3.58.48-7.75.72-12.44.69-3.58,0-7.3-.53-11.12-1.56-3.82-1.04-7.61-2.63-11.35-4.7-3.74-2.1-7.27-4.72-10.58-7.85-3.35-3.16-6.26-6.82-8.84-11.04-2.55-4.19-4.56-8.92-6.02-14.17-1.46-5.25-2.2-11.04-2.23-17.35-.03-5.17.37-10.24,1.22-15.18.85-4.96,2.34-9.63,4.46-14.06,2.15-4.4,5.12-8.41,8.97-11.99,2.31-2.12,4.91-3.93,7.8-5.38,2.86-1.49,6.13-2.57,9.76-3.34,3.63-.77,7.77-1.14,12.36-1.14,4.91.03,9.5.45,13.71,1.33,4.25.85,7.96,2.02,11.15,3.5,3.18,1.49,5.68,3.16,7.46,5.04,1.99,2.1,3.5,4.46,4.53,7.03,1.04,2.55,1.59,5.1,1.67,7.61,0,1.12.1,1.99.32,2.58.24.61.66.93,1.27.93.69,0,1.17-.32,1.43-.93.26-.64.42-1.54.48-2.74.08-.82.13-1.91.16-3.29.02-1.38.05-2.89.08-4.54.03-1.64.05-3.29.08-4.91.03-1.65.08-3.13.16-4.46.1-1.83.24-3.34.34-4.46.13-1.14.24-2.04.32-2.71.08-.66.13-1.19.13-1.59,0-.51-.16-.9-.53-1.25-.37-.37-.98-.58-1.86-.66-2.36-.27-4.86-.69-7.48-1.25-2.6-.53-5.41-1.03-8.44-1.46-2.42-.32-4.75-.61-7.03-.85-2.31-.24-4.72-.43-7.3-.56-2.57-.11-5.49-.18-8.76-.18-7.88,0-14.88.69-21.04,2.04-6.15,1.35-11.62,3.27-16.4,5.78-4.8,2.52-9.07,5.52-12.87,9.05-3.79,3.53-6.93,7.27-9.37,11.19-2.44,3.93-4.32,7.88-5.68,11.81-1.35,3.93-2.28,7.67-2.81,11.2-.53,3.53-.8,6.69-.77,9.42-.03,3.87.29,7.85.9,11.91.61,4.09,1.64,8.15,3.13,12.23,1.46,4.06,3.47,8.01,6.05,11.89,2.55,3.85,5.78,7.48,9.66,10.93,4.83,4.17,10.08,7.54,15.76,10.08,5.65,2.55,11.73,4.4,18.23,5.57,6.47,1.14,13.35,1.73,20.61,1.7Z"/>
  <path class="cls-2" d="M88.98,396.93l-.56-19.54c-8.06-3.67-15.76-8.17-22.97-13.65-16.77-12.76-28.65-29.42-35.13-48.42h0s-19.25-1.84-19.25-1.84h0c-2.16-.17-4.2-.9-5.74-2.52-2.5-2.62-2.64-6.44-2.24-9.84.47-3.94,1.67-8.08,2.81-11.88,3-10.02,6.35-19.78,8.16-30.12,1.61-9.25,2.05-19.33-1.39-28.23-.19-.51-.41-1-.63-1.49-.77-1.76-.84-3.7.91-5.1,1.77-1.4,3.68-.89,5.21.3.48.38.96.76,1.45,1.13,5.47,4.15,11.64,9.62,15.91,15.78,1.14-2.51,2.34-4.98,3.51-7.52,3.41-7.39,5.23-13.5,5.47-21.72.02-.44,0-.89.04-1.33.11-1.77.94-3.35,2.76-3.95,1.74-.57,3.46.15,4.52,1.54.36.46.66.99.94,1.51l.09.18.08.18c7.44,18.01,6.01,32.93,1.41,50.82,2.61-.22,5.23-.44,7.84-.66,1.67-.15,3.09-.25,4.47,1.04,1.37,1.28,1.33,2.6,1.4,4.25.25,5.71.5,11.43.74,17.15.65,16.18,6.7,30.34,18.09,41.17l-.3-11.21c-6.56-8.54-10.03-18.8-10.49-30.27l-6.92-159.07,3.41-.48c2.82-.4,5.64-.77,8.47-1.13l-.52-18c-.71-.25-1.34-.65-1.86-1.24-.91-1.04-1.06-2.03-1.12-3.19-8.73-3.8-8.19-17.22,1.27-19.67l.15-.04.15-.02c1.55-.26,3.11-.5,4.67-.71l.56-.73c-3.44-3.01-6.7-6.19-9.45-9.87-.51-.67-.99-1.37-1.46-2.07-1.76-2.24-3.13-4.83-3.33-7.72-.25-3.6,1.39-6.72,3.82-9.27,1-1.05,1.9-2.19,2.86-3.27,2.62-2.96,4.19-5.23,4.72-9.15.02-.19.05-.37.07-.55.02-.2.04-.4.06-.6.15-1.22.82-2.26,2.04-2.69,1.19-.42,2.45-.04,3.31.84.19.19.36.4.53.61.25.3.48.6.68.88,1.89-3.48,4.2-6.72,7-9.52,2.71-2.71,5.61-4.45,8.96-6.22,5.25-2.79,8.97-9.53,8.21-15.47-.02-.17-.05-.34-.08-.52-.25-1.39.2-2.77,1.6-3.46,1.39-.68,2.82-.2,3.74.89.15.18.3.37.45.56,3.08,3.89,5.85,7.55,6,12.76.08,2.67-.67,4.78-1.74,7.16-.6,1.32-1.27,2.7-1.47,4.15-.13.94.02,1.73.35,2.45,2.16-1.63,3.95-3.69,4.54-6.46.35-1.63,1.15-3.16,3.19-3.15,1.54.01,2.52,1.02,2.97,2.35.07.22.14.44.23.66,2.47,6.23,1.93,12.14-.79,18.22-.65,1.62-1.51,3.19-2.3,4.75-.65,1.28-1.61,3.13-1.86,4.54-.05.25.17.56.32.77,3.07,3.61,4.98,8,4.27,12.81-.99,6.77-6.7,12.12-12.51,15.84l.33.44c1.71.23,3.41.48,5.1.77l.15.02.15.04c9.59,2.48,10,16.23.91,19.82-.07,1.12-.25,2.07-1.12,3.06-.52.59-1.15.99-1.85,1.23l-.4,13.95c8.07-.54,16.16-.94,24.25-1.18l-.37-12.77c-.7-.25-1.34-.65-1.86-1.24-.91-1.04-1.06-2.03-1.12-3.19-8.73-3.8-8.19-17.22,1.27-19.67l.15-.04.15-.02c1.55-.26,3.11-.5,4.67-.71l.74-.98c-3.33-2.94-6.49-6.04-9.17-9.62-.5-.67-.99-1.37-1.45-2.07-1.76-2.24-3.13-4.83-3.33-7.72-.25-3.6,1.39-6.72,3.82-9.27,1-1.05,1.9-2.19,2.86-3.27,2.62-2.96,4.18-5.23,4.72-9.15.02-.19.05-.37.07-.55.03-.2.04-.4.07-.6.15-1.22.82-2.26,2.04-2.69,1.19-.42,2.46-.04,3.31.84.19.19.36.4.54.61.25.3.48.6.68.88,1.89-3.48,4.2-6.72,7.01-9.52,2.7-2.71,5.61-4.45,8.96-6.22,5.25-2.79,8.97-9.53,8.21-15.47-.02-.17-.06-.34-.09-.52-.25-1.39.2-2.77,1.6-3.46,1.38-.68,2.82-.2,3.74.89.15.18.3.37.44.56,3.09,3.89,5.85,7.55,6,12.76.08,2.67-.68,4.78-1.75,7.16-.6,1.32-1.27,2.7-1.47,4.15-.13.94.02,1.73.35,2.45,2.17-1.63,3.95-3.69,4.54-6.46.35-1.63,1.16-3.16,3.19-3.15,1.54.01,2.52,1.02,2.97,2.35.07.22.14.44.23.66,2.47,6.23,1.93,12.14-.79,18.22-.65,1.62-1.51,3.19-2.3,4.75-.65,1.28-1.61,3.13-1.87,4.54-.04.25.17.56.33.77,3.07,3.61,4.97,8,4.27,12.81-1.01,6.89-6.91,12.32-12.83,16.04l.18.24c1.71.23,3.41.48,5.11.77l.15.02.15.04c9.59,2.48,10,16.23.91,19.82-.06,1.12-.24,2.07-1.12,3.06-.52.59-1.15.99-1.85,1.23l-.37,12.8c8.02.26,16.04.66,24.04,1.19l-.4-14c-.71-.25-1.34-.65-1.86-1.24-.92-1.04-1.06-2.03-1.12-3.19-8.73-3.8-8.19-17.22,1.27-19.67l.15-.04.15-.02c1.55-.26,3.11-.5,4.67-.71l.65-.86c-3.38-2.98-6.59-6.11-9.3-9.75-.5-.67-.99-1.37-1.46-2.07-1.76-2.24-3.13-4.83-3.33-7.72-.25-3.6,1.39-6.72,3.82-9.27,1-1.05,1.9-2.19,2.86-3.27,2.62-2.96,4.18-5.23,4.72-9.15.02-.19.05-.37.07-.55.02-.2.04-.4.06-.6.15-1.22.82-2.26,2.04-2.69,1.19-.42,2.46-.04,3.31.84.19.19.36.4.54.61.25.3.48.6.69.88,1.89-3.48,4.2-6.72,7-9.52,2.7-2.71,5.61-4.45,8.96-6.22,5.25-2.79,8.97-9.53,8.21-15.47-.02-.17-.05-.34-.08-.52-.25-1.39.2-2.77,1.6-3.46,1.39-.68,2.82-.2,3.74.89.15.18.3.37.44.56,3.09,3.89,5.85,7.55,6,12.76.08,2.67-.67,4.78-1.75,7.16-.6,1.32-1.27,2.7-1.47,4.15-.13.94.02,1.73.35,2.45,2.17-1.63,3.95-3.69,4.54-6.46.35-1.63,1.16-3.16,3.2-3.15,1.54.01,2.52,1.02,2.97,2.35.08.22.15.44.23.66,2.47,6.23,1.94,12.14-.79,18.22-.65,1.62-1.52,3.19-2.3,4.75-.65,1.28-1.61,3.13-1.87,4.54-.05.25.17.56.33.77,3.07,3.61,4.97,8,4.27,12.81-1,6.84-6.81,12.22-12.68,15.94l.26.33c1.71.23,3.41.48,5.1.77l.15.02.15.04c9.59,2.48,10,16.23.91,19.82-.06,1.12-.24,2.07-1.12,3.06-.52.59-1.15.99-1.85,1.23l-.52,17.95c3,.37,6,.76,9,1.16l3.43.47-6.92,159.08c-.47,11.79-4.12,22.29-11.05,30.98l-.32,11.05c11.76-10.91,18-25.27,18.66-41.72.25-5.71.5-11.43.74-17.14.07-1.65.03-2.97,1.4-4.25,1.38-1.29,2.79-1.18,4.47-1.04,2.62.22,5.23.44,7.84.66-4.6-17.89-6.03-32.82,1.41-50.82l.08-.18.1-.18c.28-.51.58-1.04.94-1.51,1.07-1.39,2.78-2.11,4.52-1.54,1.82.6,2.65,2.18,2.76,3.95.03.44.02.89.04,1.33.24,8.23,2.05,14.33,5.46,21.72,1.18,2.54,2.38,5.02,3.52,7.52,4.26-6.16,10.44-11.63,15.91-15.78.49-.37.96-.75,1.45-1.13,1.53-1.19,3.45-1.7,5.22-.3,1.76,1.4,1.68,3.34.91,5.1-.22.5-.43.99-.63,1.49-3.44,8.91-3,18.98-1.39,28.23,1.8,10.34,5.17,20.1,8.16,30.12,1.14,3.8,2.34,7.94,2.81,11.88.4,3.4.26,7.21-2.24,9.84-1.55,1.63-3.58,2.36-5.74,2.52h0s-19.25,1.85-19.25,1.85v-.02c-6.48,19.01-18.36,35.67-35.13,48.43-7.55,5.75-15.66,10.42-24.15,14.18l.62-.28-.56,19.31c1.56-.12,3.15-.06,4.55-.03l3.24.07-.13,3.23c-.07,1.83-.7,3.46-2.04,4.73-1.11,1.05-2.32,1.51-3.66,2.15-.59.28-1.2.6-1.55,1.17-.04.07-.07.17-.09.25-.04.19-.06.39-.07.59-.12,2.63.41,4.89-1.93,6.83-.83.69-1.8,1.08-2.83,1.29-1.21,3.22-4.74,5.1-8.09,5.1s-6.89-1.87-8.09-5.1c-1.03-.21-1.99-.6-2.83-1.29-.44-.37-.81-.8-1.11-1.3-.75-1.26-.84-2.63-.82-4.06.01-.5.11-1.88-.16-2.31-.36-.57-.96-.89-1.55-1.17-1.34-.65-2.55-1.1-3.66-2.15-1.34-1.27-1.96-2.91-2.04-4.73l-.13-3.23,3.24-.07c1.3-.03,2.76-.08,4.21,0l-.3-10.42.12-.03c-13.01,3.1-26.45,4.69-39.84,5.28l-.35,11.98c1.62-.14,3.29-.08,4.75-.05l3.24.07-.13,3.24c-.07,1.82-.7,3.46-2.04,4.73-1.11,1.05-2.32,1.51-3.66,2.15-.59.28-1.2.6-1.55,1.17-.04.07-.07.17-.09.25-.04.19-.06.39-.07.59-.12,2.63.41,4.89-1.92,6.83-.83.69-1.79,1.09-2.83,1.3-1.21,3.21-4.74,5.1-8.09,5.1s-6.88-1.87-8.09-5.1c-1.03-.21-2-.6-2.83-1.3-.44-.37-.82-.81-1.11-1.3-.75-1.26-.84-2.63-.82-4.05,0-.51.11-1.88-.16-2.31-.35-.57-.96-.89-1.55-1.17-1.34-.65-2.55-1.1-3.66-2.15-1.34-1.27-1.96-2.9-2.04-4.73l-.13-3.24,3.24-.07c1.36-.03,2.9-.09,4.4.02l-.35-11.97c-13.41-.6-26.89-2.22-39.92-5.37l-.3,10.58c1.56-.12,3.15-.06,4.55-.03l3.24.07-.13,3.23c-.07,1.83-.7,3.46-2.04,4.73-1.11,1.05-2.32,1.51-3.66,2.15-.59.28-1.2.6-1.55,1.17-.05.07-.07.17-.09.25-.05.19-.06.39-.07.59-.12,2.63.41,4.89-1.93,6.83-.83.69-1.8,1.08-2.83,1.29-1.21,3.22-4.74,5.1-8.09,5.1s-6.89-1.87-8.09-5.1c-1.03-.21-2-.6-2.83-1.29-.44-.37-.81-.8-1.11-1.3-.75-1.26-.84-2.63-.81-4.06,0-.5.11-1.88-.16-2.31-.36-.57-.97-.89-1.55-1.17-1.34-.65-2.55-1.1-3.66-2.15-1.34-1.27-1.97-2.91-2.04-4.73l-.13-3.23,3.23-.07c1.3-.03,2.76-.08,4.21,0ZM73.11,126.87c15.8-2.2,31.38-3.85,46.84-4.95l16.48,19.25,8.9-7.62,14.9,17.41-8.9,7.62,16.69,19.5,8.9-7.62,14.9,17.41-8.9,7.62,16.69,19.5,8.9-7.62,14.9,17.41-8.9,7.62,14.79,17.28,1.9,2.22,8.9-7.62,14.9,17.41-8.9,7.62,9.78,11.42-.08,1.75c-.8,19.84-11.34,39.78-43.57,49.01l-14.5-16.94-1.9-2.22-8.9,7.62-14.9-17.41h0s8.9-7.62,8.9-7.62l-16.69-19.5,1.05-.9-9.95,8.52-14.9-17.41,8.9-7.62-16.69-19.5-8.91,7.62-14.9-17.41,8.9-7.62-16.69-19.5-8.9,7.62-14.9-17.41,8.9-7.62-11.12-12.99-1.93-44.34ZM124.06,121.64l12.73,14.96,8.9-7.62,19.13,22.35-8.9,7.62,12.47,14.56,8.9-7.62,19.13,22.35-8.9,7.62,12.46,14.57,8.9-7.62,19.13,22.35-8.9,7.62,12.47,14.56,8.9-7.62,16.37,19.13,5.74-131.98c-47.13-6.36-92.34-8.23-138.52-5.23ZM256.58,264.63l-5.9,5.05,5.4,6.53.5-11.57ZM208.13,332.6l.6-.52-13.25-15.15-8.9,7.62-19.13-22.35,8.9-7.62-12.46-14.56-8.9,7.62-19.13-22.35,8.9-7.62-12.46-14.56-8.9,7.62-19.13-22.35,8.9-7.62-12.47-14.56-8.9,7.62-15.71-18.36,3.79,87.04c1.08,27.06,20.3,54.32,87.96,54.32,16.01,0,29.3-1.53,40.29-4.21ZM75.81,188.79l5.78-4.95-6.28-6.69.5,11.64ZM86.42,76.23c1.13-.6,2.69-.87,4.08-1.02-.08-.22-.09-.48-.02-.79-3.4-2.52-7.03-6.43-8.79-12.01-1.15-3.64-.29-5.89,1.09-9.41,1.28-3.26,2.64-6.52,2.41-11.09,1.2,2.95,3.48,6.61,3.87,11.18-1.41,1.13-2.62,2.38-3.53,3.85-1.56,3.8-1.66,7.46-.32,10.98-.03-.69-.02-1.36,0-2.01.15-2.99.94-5.6,2.92-7.51-.36,3.15.55,5.83,1.65,7.93.29.56.6,1.08.91,1.55-.5-1.66-.7-3.2-.67-4.64.04-1.52.35-2.93.88-4.24,1.03-2.54,2.9-4.72,5.2-6.71,6.05-4.92,6.11-9.31,6.41-13.31-1.48,3.35-2.78,6.73-6.58,9.56-.58.43-1.22.85-1.93,1.26-1.06.62-2.11,1.25-3.1,1.92,2.21-5.55,5.81-10.94,9.94-14.15,1.64-1.28,3.06-2.91,4.71-4.32.92-.77,1.73-1.54,2.45-2.31,4.72-5.03,5.64-10.06,6.83-15.09.71,5.55,1.89,11.58-5.51,20.15-2.02,2.48-3.67,5.04-4.72,7.7-1.16,2.94-.42,3.52.63,6.36,1.17,3.19,1.96,6.87,1.52,11.34-.69,6.97-3.87,10.59-7.4,13.34.83,0,1.66,0,2.48,0,.87,0,1.73.02,2.6.03,7.59-5.39,13.46-15.89,11.81-24.72,11.56,9.64,3.35,19.41-5.88,25,.37.03.74.06,1.11.1,1.6.15,4.08.35,5.73,1.25,9.79-6.09,16.26-14.98,8.01-24.61-.66-.91-1.15-1.88-.92-3.16.53-2.9,3.2-7.01,4.36-9.91,2.9-6.45,2.75-11.78.21-17.24-.63,4.88-3.58,7.8-7.18,10.12-2.38,1.86-5.4,3.71-7.46,5.91-.31-2.74,2.98-5.75,4.57-7.52-.71-1.3-1.09-2.77-.84-4.58.54-3.95,3.31-6.53,3.19-10.82-.14-4.76-3.16-8.2-5.95-11.74,1.51,7.41-2.93,15.98-9.59,19.52-3.08,1.63-5.73,3.17-8.25,5.7-3.34,3.35-7,8.46-9.67,16.06-.43-4.08-.55-5.33-2.99-8.28-.47,3.55-.57,6.55-5.65,12.29-1.05,1.18-1.86,2.21-2.93,3.35-2.03,2.14-3.18,4.44-3,7.02.13,1.9,1,3.95,2.77,6.18.46.7.93,1.37,1.42,2.04,2.66,3.55,5.82,6.61,9.13,9.51ZM93.13,74.99l.53-.03-3.86-6.49c-.34-.53-.66-1.08-.95-1.63-.85-1.61-1.44-3.31-1.7-5.06-.54,1.3-.77,2.74-.84,4.19-.03.64-.03,1.29,0,1.93l.04,1.02c1.36,1.75,2.98,3.31,4.8,4.64l2.01,1.43ZM94.15,74.92c1.12-.06,2.25-.11,3.37-.13,1.7-1.23,3.31-2.55,4.65-4.22,2.17-2.71,3.18-5.83,3.51-9.25.37-3.8-.16-7.29-1.46-10.86-1.11-3.03-1.91-3.84-.61-7.13,1.15-2.91,2.92-5.57,4.89-7.98l.02-.02c2.66-3.09,4.87-6.6,5.54-10.68.14-.82.2-1.62.22-2.41-1.08,3.37-2.57,6.34-5.49,9.46-.8.85-1.65,1.65-2.53,2.39-.85.73-1.65,1.52-2.46,2.31l-.21,2.68c-.18,2.31-.31,4.39-1.11,6.6-1.11,3.04-3.19,5.43-5.68,7.45-2.01,1.74-3.88,3.8-4.9,6.29-.5,1.24-.77,2.53-.8,3.87-.04,1.46.21,2.91.62,4.3l2.15,7.22c.11-.03.2.03.28.12ZM106.17,74.84c.76.03,1.52.06,2.29.1,1.28-.71,2.52-1.49,3.71-2.34,7.76-5.5,11.97-12.63,5.42-19.78.14,8.06-4.85,16.82-11.43,22.01ZM126.78,30.76c-3.37,5.9-12.4,7.04-16.4,12.65-3.6,5.03-2.26,13.17.45,17.7-.02-.35-.03-.69-.04-1.03-.04-1.57.24-7.05.66-8.57,1.29-4.69,5.28-6.01,8.65-9.76,1.47-1.64,2.55-3.3,3.92-4.95.47-.56.88-1.15,1.23-1.77.69-1.21,1.18-2.58,1.53-4.26ZM87.93,52.63c-.28-2.36-1.05-4.32-1.93-6.29-.42,2.36-1.23,4.54-2.22,7.05-1.25,3.17-2.14,5.3-1.06,8.69.15.48.32.96.5,1.42-.09-2.34.38-4.68,1.32-6.97l.03-.08.05-.07c.88-1.44,2.03-2.67,3.31-3.75ZM101.65,38.33s-.09.07-.13.1c-3.35,2.61-6.17,6.54-8.18,10.54.05-.03.1-.06.15-.09.63-.36,1.24-.76,1.83-1.19,3.4-2.53,4.6-5.41,6.24-9.13l.1-.23ZM123.61,35.58c-4.16,2.93-9.56,4.54-12.36,8.45-2.23,3.12-2.4,7.78-1.39,11.82,0-.05,0-.1,0-.15.09-1.33.19-3.22.54-4.49,1.39-5.06,5.67-6.6,8.89-10.19,1.4-1.56,2.56-3.3,3.89-4.92.15-.17.28-.35.42-.53ZM152.64,76.09c1.22-.55,2.82-.78,4.19-.92-.06-.21-.07-.46,0-.75-3.4-2.52-7.03-6.43-8.79-12.01-1.15-3.64-.3-5.89,1.09-9.41,1.28-3.26,2.64-6.52,2.41-11.09,1.2,2.95,3.48,6.61,3.87,11.18-1.41,1.13-2.62,2.38-3.53,3.85-1.56,3.8-1.66,7.46-.32,10.98-.03-.69-.03-1.36,0-2.01.15-2.99.94-5.6,2.92-7.51-.35,3.15.55,5.83,1.65,7.93.29.56.6,1.08.91,1.55-.49-1.66-.7-3.2-.67-4.64.04-1.52.35-2.93.88-4.24,1.03-2.54,2.89-4.72,5.2-6.71,6.05-4.92,6.11-9.31,6.41-13.31-1.48,3.35-2.78,6.73-6.58,9.56-.58.43-1.23.85-1.93,1.26-1.06.62-2.11,1.25-3.1,1.92,2.21-5.55,5.81-10.94,9.94-14.15,1.64-1.28,3.06-2.91,4.7-4.32.91-.77,1.73-1.54,2.45-2.31,4.71-5.03,5.64-10.06,6.83-15.09.7,5.55,1.89,11.58-5.51,20.15-2.02,2.48-3.67,5.04-4.72,7.7-1.16,2.94-.42,3.52.63,6.36,1.17,3.19,1.96,6.87,1.52,11.34-.68,6.97-3.86,10.58-7.39,13.34.68,0,1.37,0,2.05,0,1,0,2.01.02,3.01.04,7.6-5.38,13.48-15.9,11.82-24.73,11.58,9.66,3.32,19.45-5.93,25.04.24.02.49.04.73.06,1.68.16,4.33.36,5.97,1.39,9.92-6.09,16.56-15.05,8.24-24.75-.66-.91-1.15-1.88-.92-3.16.54-2.9,3.2-7.01,4.36-9.91,2.9-6.45,2.75-11.78.21-17.24-.63,4.88-3.58,7.8-7.18,10.12-2.38,1.86-5.41,3.71-7.46,5.91-.31-2.74,2.98-5.75,4.57-7.52-.71-1.3-1.09-2.77-.84-4.58.54-3.95,3.31-6.53,3.19-10.82-.14-4.76-3.16-8.2-5.95-11.74,1.51,7.41-2.92,15.98-9.59,19.52-3.08,1.63-5.73,3.17-8.25,5.7-3.34,3.35-7.01,8.46-9.67,16.06-.43-4.08-.56-5.33-2.99-8.28-.47,3.55-.56,6.55-5.65,12.29-1.05,1.18-1.86,2.21-2.93,3.35-2.03,2.14-3.19,4.44-3,7.02.13,1.9.99,3.95,2.77,6.18.46.7.93,1.37,1.43,2.04,2.61,3.5,5.71,6.5,8.96,9.36ZM159.43,74.96l.55-.04-3.85-6.46c-.34-.53-.66-1.08-.95-1.63-.85-1.61-1.44-3.31-1.7-5.06-.54,1.3-.77,2.74-.85,4.19-.03.64-.03,1.29,0,1.93l.04,1.02c1.36,1.75,2.98,3.31,4.8,4.64l1.97,1.41ZM160.47,74.9c1.13-.06,2.27-.1,3.4-.12,1.7-1.23,3.3-2.55,4.64-4.21,2.17-2.71,3.18-5.83,3.51-9.25.37-3.8-.16-7.29-1.47-10.86-1.11-3.03-1.91-3.84-.61-7.13,1.15-2.91,2.92-5.57,4.89-7.98l.02-.02c2.66-3.09,4.87-6.6,5.55-10.68.13-.82.2-1.62.22-2.41-1.07,3.37-2.56,6.34-5.49,9.46-.8.85-1.65,1.65-2.54,2.39-.85.73-1.65,1.52-2.45,2.31l-.21,2.68c-.17,2.31-.31,4.39-1.11,6.6-1.11,3.04-3.19,5.43-5.68,7.45-2.01,1.74-3.89,3.8-4.9,6.29-.5,1.24-.77,2.53-.8,3.87-.04,1.46.21,2.91.62,4.3l2.15,7.22c.1-.02.18.02.26.1ZM172.49,74.85c.76.03,1.51.07,2.27.11,1.29-.72,2.55-1.51,3.76-2.36,7.75-5.5,11.97-12.63,5.42-19.78.14,8.07-4.86,16.84-11.45,22.03ZM193.12,30.76c-3.37,5.9-12.4,7.04-16.4,12.65-3.6,5.03-2.26,13.17.45,17.7-.02-.35-.03-.69-.04-1.03-.04-1.57.24-7.05.66-8.57,1.29-4.69,5.28-6.01,8.65-9.76,1.47-1.64,2.55-3.3,3.92-4.95.46-.56.87-1.15,1.23-1.77.69-1.21,1.18-2.58,1.53-4.26ZM154.27,52.63c-.28-2.36-1.05-4.32-1.94-6.29-.42,2.36-1.23,4.54-2.22,7.05-1.25,3.17-2.14,5.3-1.06,8.69.15.48.32.96.5,1.42-.09-2.34.38-4.68,1.32-6.97l.03-.08.05-.07c.88-1.44,2.03-2.67,3.31-3.75ZM167.99,38.33s-.08.07-.13.1c-3.35,2.61-6.17,6.54-8.18,10.54.05-.03.1-.06.15-.09.63-.36,1.24-.76,1.82-1.19,3.4-2.53,4.6-5.41,6.24-9.13l.1-.23ZM189.95,35.58c-4.16,2.93-9.56,4.54-12.35,8.45-2.23,3.12-2.4,7.78-1.39,11.82,0-.05,0-.1,0-.15.09-1.33.19-3.22.54-4.49,1.39-5.06,5.66-6.6,8.89-10.19,1.4-1.56,2.56-3.3,3.89-4.92.14-.17.28-.35.42-.53ZM218.19,76.16c1.1-.53,2.55-.79,3.86-.94-.08-.22-.09-.48-.02-.8-3.4-2.52-7.03-6.43-8.79-12.01-1.15-3.64-.29-5.89,1.09-9.41,1.28-3.26,2.64-6.52,2.41-11.09,1.2,2.95,3.48,6.61,3.87,11.18-1.41,1.13-2.62,2.38-3.53,3.85-1.55,3.8-1.66,7.46-.32,10.98-.02-.69-.02-1.36.01-2.01.14-2.99.94-5.6,2.92-7.51-.35,3.15.55,5.83,1.65,7.93.29.56.6,1.08.91,1.55-.49-1.66-.7-3.2-.67-4.64.04-1.52.35-2.93.88-4.24,1.04-2.54,2.9-4.72,5.2-6.71,6.05-4.92,6.11-9.31,6.41-13.31-1.47,3.35-2.78,6.73-6.58,9.56-.58.43-1.22.85-1.93,1.26-1.07.62-2.11,1.25-3.11,1.92,2.2-5.55,5.81-10.94,9.94-14.15,1.64-1.28,3.06-2.91,4.71-4.32.91-.77,1.73-1.54,2.45-2.31,4.72-5.03,5.64-10.06,6.83-15.09.7,5.55,1.89,11.58-5.51,20.15-2.02,2.48-3.67,5.04-4.73,7.7-1.16,2.94-.42,3.52.62,6.36,1.17,3.19,1.97,6.87,1.53,11.34-.69,6.97-3.87,10.59-7.4,13.34.85,0,1.7,0,2.55,0,.84,0,1.68.02,2.53.03,7.59-5.39,13.46-15.89,11.8-24.72,11.55,9.64,3.35,19.4-5.87,25,.39.03.78.06,1.17.1,1.65.16,4.21.36,5.86,1.32,9.86-6.09,16.41-15.02,8.13-24.68-.66-.91-1.16-1.88-.92-3.16.54-2.9,3.2-7.01,4.36-9.91,2.9-6.45,2.75-11.78.21-17.24-.63,4.88-3.58,7.8-7.18,10.12-2.38,1.86-5.41,3.71-7.46,5.91-.31-2.74,2.98-5.75,4.57-7.52-.71-1.3-1.09-2.77-.84-4.58.54-3.95,3.31-6.53,3.19-10.82-.14-4.76-3.16-8.2-5.95-11.74,1.51,7.41-2.92,15.98-9.59,19.52-3.08,1.63-5.73,3.17-8.25,5.7-3.34,3.35-7.01,8.46-9.67,16.06-.43-4.08-.55-5.33-2.99-8.28-.46,3.55-.56,6.55-5.65,12.29-1.05,1.18-1.86,2.21-2.93,3.35-2.03,2.14-3.19,4.44-3.01,7.02.13,1.9.99,3.95,2.77,6.18.46.7.93,1.37,1.43,2.04,2.63,3.52,5.76,6.56,9.04,9.43ZM224.68,74.99l.52-.04-3.87-6.49c-.34-.53-.66-1.08-.95-1.63-.85-1.61-1.44-3.31-1.7-5.06-.54,1.3-.78,2.74-.84,4.19-.03.64-.03,1.29,0,1.93l.04,1.02c1.36,1.75,2.98,3.31,4.8,4.64l2.02,1.44ZM225.7,74.93c1.12-.06,2.24-.11,3.36-.13,1.71-1.24,3.32-2.55,4.65-4.23,2.17-2.71,3.17-5.83,3.51-9.25.38-3.8-.15-7.29-1.46-10.86-1.11-3.03-1.91-3.84-.61-7.13,1.15-2.91,2.93-5.57,4.89-7.98l.02-.02c2.66-3.09,4.87-6.6,5.54-10.68.14-.82.2-1.62.22-2.41-1.08,3.37-2.57,6.34-5.49,9.46-.8.85-1.65,1.65-2.54,2.39-.85.73-1.65,1.52-2.45,2.31l-.2,2.68c-.18,2.31-.31,4.39-1.11,6.6-1.11,3.04-3.19,5.43-5.68,7.45-2.01,1.74-3.89,3.8-4.9,6.29-.5,1.24-.77,2.53-.8,3.87-.04,1.46.21,2.91.62,4.3l2.15,7.22c.12-.03.2.04.28.13ZM237.72,74.84c.76.03,1.53.06,2.29.1,1.28-.71,2.52-1.49,3.71-2.33,7.76-5.5,11.97-12.63,5.42-19.78.14,8.06-4.85,16.82-11.42,22.01ZM258.33,30.76c-3.37,5.9-12.4,7.04-16.4,12.65-3.6,5.03-2.26,13.17.45,17.7-.01-.35-.03-.69-.04-1.03-.04-1.57.24-7.05.66-8.57,1.29-4.69,5.28-6.01,8.65-9.76,1.47-1.64,2.55-3.3,3.92-4.95.47-.56.87-1.15,1.23-1.77.69-1.21,1.18-2.58,1.53-4.26ZM219.48,52.63c-.28-2.36-1.05-4.32-1.94-6.29-.41,2.36-1.23,4.54-2.21,7.05-1.25,3.17-2.14,5.3-1.06,8.69.15.48.32.96.51,1.42-.09-2.34.38-4.68,1.32-6.97l.03-.08.04-.07c.88-1.44,2.03-2.67,3.32-3.75ZM233.19,38.33s-.09.07-.13.1c-3.36,2.61-6.17,6.54-8.18,10.54.05-.03.1-.06.15-.09.63-.36,1.24-.76,1.82-1.19,3.4-2.53,4.6-5.41,6.24-9.13l.1-.23ZM255.15,35.58c-4.16,2.93-9.56,4.54-12.35,8.45-2.23,3.12-2.4,7.78-1.39,11.82,0-.05,0-.1,0-.15.09-1.33.19-3.22.54-4.49,1.39-5.06,5.67-6.6,8.89-10.19,1.4-1.56,2.56-3.3,3.89-4.92.14-.17.28-.35.42-.53ZM90.7,317.64l.24,10.03c.41.33.82.65,1.24.96.64.49,1.29.97,1.94,1.43l-.27-.19-.22-9.47c-1.02-.89-2-1.81-2.93-2.76ZM96.25,322.54l.24,9.13-.36-.23c1.52,1,3.06,1.94,4.64,2.82l-.17-.1-.05-8.59c-1.35-.87-2.67-1.79-3.94-2.76l-.36-.28ZM102.74,326.93l.06,8.43c1.41.74,2.83,1.43,4.28,2.09l.09-8.12c-1.51-.75-2.99-1.56-4.43-2.41ZM107.32,329.41c.67.33,1.33.65,2.01.96-.68-.31-1.35-.63-2.01-.96ZM109.55,330.47l-.08,8.02h-.04c1.09.44,2.2.88,3.31,1.3-.17-.07-.35-.13-.52-.2l.23-7.87c-.98-.4-1.94-.82-2.9-1.26ZM116.36,333.23l-.22,7.77c11.93,3.99,24.77,5.82,37.34,6.54h0s-.22-7.38-.22-7.38c-12.32-.79-25.21-2.77-36.9-6.93ZM157.22,340.37l.21,7.35c.92.04,1.83.07,2.75.09l-.17-7.33c-.93-.03-1.86-.07-2.79-.11ZM162.63,340.55l.19,7.32c1.27.02,2.52.03,3.78.04l-.05-7.31c-1.29,0-2.6-.02-3.92-.05ZM168.75,340.6l.05,7.31c1.35,0,2.71-.02,4.08-.04l.08-7.32c-1.42.03-2.82.05-4.21.05ZM175.37,340.49l-.07,7.33c.87-.02,1.74-.05,2.61-.09l.21-7.35-2.75.1ZM182.08,340.18l-.21,7.37c12.68-.7,25.65-2.54,37.69-6.56l-.56.18-.23-7.76c-11.65,4.07-24.46,6-36.69,6.76ZM222.69,331.95l.23,7.86-.06.02c.95-.35,1.89-.73,2.82-1.11l-.18-7.96c-.93.41-1.86.81-2.81,1.19ZM225.53,330.75q.6-.27,0,0ZM228.05,329.57l.21,8.05c1.34-.6,2.66-1.23,3.97-1.9l-.05-8.33c-1.34.77-2.72,1.5-4.12,2.18ZM234.36,326.08l.06,8.46c1.48-.82,2.93-1.68,4.35-2.59l.1-8.97c-1.45,1.1-2.96,2.13-4.51,3.1ZM241.27,321.08l-.09,9.26c.79-.55,1.57-1.12,2.34-1.7.22-.17.44-.34.66-.51l.29-9.96c-1.02,1-2.08,1.97-3.2,2.91ZM85,121.49c1.33-.16,2.65-.32,3.98-.47h0s-.29-12.48-.29-12.48c-.02-1.44,1.25-2.61,2.79-2.61,1.29,0,2.37.83,2.69,1.94-.21-.05-.42-.07-.64-.07-1.53,0-2.81,1.17-2.79,2.61l.27,10.37h0c2.75-.31,5.51-.6,8.26-.88h0l-.07-11.36c0-1.44,1.25-2.61,2.79-2.61,1.29,0,2.39.83,2.7,1.94-.21-.05-.42-.07-.64-.07-1.53,0-2.8,1.17-2.79,2.61l.06,9.29c2.75-.27,5.51-.53,8.27-.76l.12-10.4c.02-1.44,1.25-2.61,2.79-2.61,1.29,0,2.39.83,2.7,1.94-.21-.05-.43-.07-.65-.07-1.53,0-2.77,1.17-2.79,2.61l-.08,8.35h0c2.32-.19,4.64-.37,6.96-.54h-.01l.45-15.47c-11.51-1.2-23.09-1.2-34.6,0l.54,18.74ZM150.77,116.66c1.34-.03,2.67-.06,4.01-.09l-.18-8.02c-.02-1.44,1.25-2.61,2.79-2.61,1.29,0,2.37.83,2.69,1.94-.21-.05-.42-.07-.64-.07-1.53,0-2.81,1.17-2.79,2.61l.16,6.12c2.78-.04,5.56-.07,8.34-.08l-.05-7.91c0-1.44,1.25-2.61,2.79-2.61,1.28,0,2.38.83,2.7,1.94-.21-.05-.43-.07-.65-.07-1.53,0-2.8,1.17-2.79,2.61l.04,6.04c.71,0,1.42,0,2.13,0,2.06,0,4.13.02,6.19.05l.09-7.96c.02-1.44,1.26-2.61,2.79-2.61,1.29,0,2.39.83,2.7,1.94-.21-.05-.43-.07-.65-.07-1.53,0-2.77,1.17-2.78,2.61l-.06,6.12h0c2.33.04,4.65.09,6.98.15l.4-13.93c-11.51-1.2-23.09-1.2-34.6,0l.4,13.9ZM216.51,118.26c1.34.1,2.68.2,4.02.3h0l-.23-10.02c-.02-1.44,1.26-2.61,2.79-2.61,1.29,0,2.37.83,2.69,1.94-.21-.05-.42-.07-.64-.07-1.53,0-2.81,1.17-2.79,2.61l.22,8.31c2.77.22,5.54.46,8.31.72h0l-.07-10.9c0-1.44,1.26-2.61,2.79-2.61,1.29,0,2.38.83,2.69,1.94-.21-.05-.42-.07-.64-.07-1.54,0-2.8,1.17-2.79,2.61l.06,9.22c2.75.26,5.51.54,8.25.83l.14-11.92c.01-1.44,1.25-2.61,2.79-2.61,1.29,0,2.39.83,2.7,1.94-.21-.05-.43-.07-.65-.07-1.53,0-2.77,1.17-2.79,2.61l-.1,10.27c2.29.25,4.59.51,6.88.78l.54-18.72c-11.51-1.2-23.09-1.2-34.6,0l.45,15.51h-.01ZM45.65,298.51l10.11.95c.56.05,1.12.09,1.68.11.6.02,1.19.03,1.79.02h.08v.08c.02.28.04.57.06.85.02.16.03.33.06.48.03.17.08.35.13.52.09.29.18.58.28.87l.05.13-.14-.03c-.88-.17-1.76-.33-2.65-.48-.78-.13-1.56-.24-2.35-.34l-10.36-1.29c-.79-.1-1.58-.18-2.37-.24-.89-.06-1.78-.1-2.68-.12h-.08v-.08c-.01-.25-.02-.51-.05-.76-.02-.18-.04-.36-.07-.54-.03-.17-.08-.34-.13-.5-.08-.26-.16-.51-.26-.75l-.03-.07.07-.03c1.44-.67,2.86-1.4,4.25-2.17.09-.05.17-.1.26-.15l13.64-7.49v.12c.06.49.12.98.19,1.47.05.32.09.64.16.96.04.2.09.41.14.61.12.49.26.98.41,1.46l.02.07-.07.03c-.6.25-1.2.51-1.79.79-.49.23-.97.47-1.43.73l-8.92,4.78ZM167.85,388.24c34.8,0,71.57-5.81,100.09-27.51,24.37-18.55,38-45.56,39.25-76.07l.69-15.77c.06-1.37.15-1.59-.59-1.68l-.52-.05c-.14,0-.3-.02-.48-.04-11.03-.94-22.07-1.88-33.1-2.82-1.94-.16-1.67-.26-1.76,1.68-.25,5.71-.5,11.43-.74,17.14-.8,19.65-9.16,36.57-24.87,48.53-21.82,16.61-51.38,20.06-77.95,20.06v8.63c.69.03,1.39.06,2.08.08.78.03,1.56.05,2.34.05.74,0,1.47-.02,2.2-.04,1.36-.05,2.71-.11,4.07-.17h.09s0,.09,0,.09c-.02.25-.04.5-.05.76,0,.16-.02.33-.02.49,0,.24,0,.48.02.71.01.26.03.51.05.77v.1s-.09-.02-.09-.02c-.7-.1-1.4-.18-2.1-.24-.68-.06-1.37-.09-2.05-.09-.03.55-.05,1.09-.06,1.64-.02.77-.02,1.55-.02,2.32v1.18c0,2.5,0,5.01.07,7.5.04,1.48.11,2.96.22,4.44v.1s-.09,0-.09,0c-.49-.04-.99-.09-1.48-.11-.25-.01-.5-.03-.75-.03-.29,0-.58.01-.88.03-.45.02-.9.06-1.34.11h-.1s0-.09,0-.09c.09-1.41.16-2.82.21-4.24.05-1.84.07-3.68.07-5.52,0-1.11,0-2.22-.02-3.33-.02-1.33-.04-2.66-.07-3.99-.69,0-1.38.03-2.07.09l-.24.03v25.3c-34.81,0-71.59-5.81-100.11-27.51-24.37-18.55-38-45.56-39.25-76.07l-.69-15.77c-.06-1.37-.15-1.59.59-1.68l.52-.05c.14,0,.3-.02.48-.04,11.03-.94,22.07-1.88,33.1-2.82,1.94-.16,1.68-.26,1.76,1.68.25,5.71.5,11.43.74,17.14.8,19.65,9.16,36.57,24.87,48.53,21.82,16.61,51.38,20.06,77.95,20.06v8.62c-.61-.02-1.22-.05-1.84-.08h-.09s0,.08,0,.08c.01.18.02.37.04.55.02.23.04.48.04.71,0,.46-.04.93-.08,1.39l-.03.21.11-.02c.61-.1,1.23-.17,1.84-.23v25.3ZM42.33,312.04c1.38-.42,2.75-.87,4.11-1.35,1.71-.59,3.41-1.23,5.1-1.88,1.61-.62,3.21-1.26,4.81-1.92,1.42-.59,2.84-1.21,4.24-1.86l.09-.04.02.1c.11.47.23.94.36,1.39.08.28.17.55.27.82.08.21.18.42.28.62.21.43.44.85.67,1.27l.05.09-.09.03c-1.39.44-2.76.9-4.14,1.39-1.71.6-3.41,1.24-5.1,1.89l-1.04.4c-1.45.56-2.9,1.13-4.33,1.73-1.22.51-2.44,1.05-3.65,1.6l-.08.04-.02-.09c-.13-.45-.27-.9-.41-1.35-.09-.3-.19-.6-.31-.9-.07-.18-.15-.36-.23-.53-.2-.45-.42-.89-.63-1.32l-.04-.09.09-.03ZM59.83,326.01c-1.01,1.53-2,3.09-2.95,4.67-.93,1.55-1.82,3.12-2.68,4.71l-.08.14-.07-.14c-.24-.48-.48-.96-.73-1.44-.15-.28-.3-.55-.46-.82-.17-.28-.35-.56-.54-.83-.25-.36-.51-.72-.77-1.08l-.04-.05.04-.05c.87-1.06,1.67-2.23,2.43-3.38,1.04-1.59,2.04-3.22,3-4.86l-2.94,1.77c-.82.5-1.64,1-2.45,1.52-.71.46-1.42.94-2.12,1.43l-.08.06-.04-.09c-.18-.38-.36-.76-.56-1.13-.13-.24-.25-.49-.4-.72-.14-.24-.29-.46-.45-.69-.24-.35-.49-.69-.74-1.03l-.06-.08.09-.05c1.18-.59,2.34-1.2,3.49-1.84,1.41-.77,2.8-1.59,4.18-2.42l.85-.51c1.57-.95,3.14-1.9,4.68-2.9,1.2-.78,2.39-1.58,3.56-2.41l.08-.06.04.1c.02.05.06.11.09.17.23.47.46.97.73,1.41.39.64.83,1.28,1.25,1.89.46.68.93,1.37,1.35,2.07.72,1.2,1.35,2.7,1.02,4.12-.32,1.4-1.51,2.41-2.69,3.12-1.03.62-2.2,1.02-3.42.89-1.09-.12-1.96-.63-2.63-1.48ZM58.58,321.9v.02c.5.82,1.22,1.69,2.19,1.92.98.23,2.03-.22,2.86-.71.72-.43,1.55-1.07,1.8-1.92.24-.83-.12-1.71-.54-2.41-.03-.06-.06-.12-.09-.18-.05-.09-.09-.18-.14-.27-.4.21-.79.42-1.18.64-.53.3-1.05.61-1.57.92l-3.31,1.99ZM75.15,333.52c-.41.36-.82.72-1.22,1.09-.57.52-1.13,1.06-1.69,1.6l-.85.82c-1.8,1.74-3.6,3.48-5.35,5.26-1.04,1.06-2.05,2.14-3.04,3.24l-.06.07-.06-.07c-.31-.38-.62-.77-.94-1.14-.16-.19-.33-.38-.5-.56-.2-.21-.42-.41-.63-.61-.32-.31-.67-.6-1.01-.89l-.07-.06.07-.06c1.08-.91,2.14-1.84,3.19-2.79,1.36-1.24,2.69-2.51,4.02-3.79.8-.77,1.59-1.55,2.38-2.33.94-.94,1.89-1.88,2.83-2.82-.48-.49-.98-.97-1.5-1.42-.53-.47-1.08-.91-1.64-1.33l-.09-.06.16-.12c.36-.29.72-.59,1.05-.91.17-.16.33-.35.48-.53.12-.13.24-.27.37-.4l.06-.07.06.07c.87.99,1.74,1.97,2.62,2.95.52.58,1.05,1.15,1.59,1.71.51.53,1.03,1.04,1.56,1.56.98.94,1.96,1.88,2.95,2.81l.07.06-.07.06c-.19.16-.39.32-.58.49-.12.11-.25.21-.36.32-.17.16-.34.33-.5.51-.18.19-.35.38-.52.57l-.07.08-.06-.08c-.41-.57-.84-1.13-1.28-1.68-.43-.54-.89-1.04-1.36-1.54ZM80.27,351.35l7.82-6.48c.43-.36.85-.73,1.26-1.11.44-.4.87-.82,1.28-1.25l.05-.06.06.06c.21.19.43.38.64.56.12.1.25.21.39.29.15.1.31.19.46.28.27.15.54.29.81.42l.13.06-.12.08c-.74.5-1.48,1.01-2.21,1.53-.64.46-1.28.94-1.9,1.43l-8.24,6.41c-.63.49-1.24.99-1.84,1.51-.67.58-1.33,1.18-1.98,1.8l-.06.05-.05-.05c-.19-.17-.37-.34-.57-.51-.14-.12-.28-.23-.43-.33-.14-.1-.29-.18-.44-.26-.23-.12-.47-.24-.72-.35l-.07-.03.03-.07c.55-1.49,1.03-3.01,1.47-4.54.02-.09.05-.19.08-.28l4.35-14.95.1.08c.38.31.77.62,1.16.92.26.19.53.38.79.57.17.12.35.23.53.33.43.26.88.51,1.32.75l.06.03-.03.07c-.25.6-.49,1.21-.71,1.83-.19.5-.36,1.01-.5,1.53l-2.92,9.68ZM103.86,350.54c-.43.48-.84.97-1.23,1.47-.39.51-.78,1.03-1.14,1.56l-.04.06-.37-.16v-.06c.1-.83.11-1.83-.22-2.61-.29-.68-.81-1.14-1.48-1.44-.64-.28-1.31-.38-1.97-.14-.64.24-1.08.7-1.35,1.32-.54,1.21.61,2.92,1.3,3.83.17.23.34.46.51.69.75,1.04,1.83,2.68,2.02,3.97.16,1.11-.14,2.23-.59,3.24-.74,1.66-1.88,3.04-3.62,3.68-1.77.65-3.6.31-5.29-.44-.69-.31-1.35-.69-1.96-1.14-.56-.42-1.07-.9-1.51-1.45l-.04-.05.03-.05c.37-.56.74-1.13,1.11-1.7.5-.77.98-1.53,1.47-2.31l.04-.06.49.22-.02.07c-.24.93-.39,2.03-.05,2.96.3.83.94,1.38,1.73,1.73.7.31,1.45.44,2.18.17.72-.27,1.19-.85,1.5-1.54.23-.52.33-1.08.19-1.64-.19-.78-1.09-2.02-1.57-2.66-.8-1.09-1.89-2.7-2.14-4.04-.21-1.13.05-2.27.51-3.31.69-1.54,1.73-2.83,3.34-3.44,1.61-.62,3.25-.36,4.79.33.71.31,1.37.71,1.96,1.2.56.47,1.04,1.02,1.43,1.64l.03.05-.04.05ZM120.86,368.7l4.82-8.94c.26-.49.52-.99.76-1.5.25-.54.49-1.09.71-1.64l.03-.07.07.03c.27.1.54.19.81.28.15.05.31.1.47.13.17.04.35.06.53.08.3.04.61.07.91.08h.14s-.08.13-.08.13c-.5.74-1,1.49-1.48,2.25-.42.67-.83,1.35-1.23,2.03l-5.24,9.03c-.4.68-.78,1.38-1.14,2.09-.41.79-.8,1.6-1.16,2.41l-.03.07-.07-.03c-.24-.09-.48-.18-.72-.26-.17-.06-.34-.11-.52-.15-.17-.04-.34-.06-.51-.08-.26-.03-.53-.04-.79-.06h-.08s0-.08,0-.08c-.05-1.59-.17-3.17-.34-4.75,0-.1-.02-.2-.03-.29l-1.57-15.49.12.04c.47.15.94.29,1.42.41.31.08.63.16.95.23.2.04.41.08.62.11.49.08,1,.14,1.5.2h.07v.08c0,.65,0,1.31.03,1.96.02.54.05,1.07.11,1.6l.92,10.08ZM144.76,371.71l.54-5.12c.14-1.31.27-2.62.37-3.94.09-1.12.17-2.24.23-3.36v-.1s.1.02.1.02c.23.06.46.12.69.16.16.04.32.07.49.08.2.02.43.02.64.02.22,0,.45,0,.67,0h.1l-.02.1c-.3,1.38-.5,2.8-.69,4.2-.35,2.6-.63,5.23-.9,7.84l-.14,1.36c-.12,1.16-.24,2.32-.32,3.49-.06.84-.11,1.69-.13,2.54v.1l-.1-.03c-.28-.07-.56-.14-.84-.2-.17-.03-.35-.06-.52-.08-.18-.02-.37-.03-.55-.03-.28,0-.57,0-.85.02h-.05s-.02-.04-.02-.04c-1.2-2.35-2.45-4.68-3.74-6.98-1.27-2.25-2.59-4.48-3.95-6.68l-.81,7.63c-.07.72-.14,1.43-.2,2.15-.09.97-.16,1.93-.24,2.9v.1s-.1-.03-.1-.03c-.23-.07-.47-.13-.7-.18-.17-.04-.34-.07-.51-.09-.13-.01-.26-.01-.39-.01-.25,0-.51.01-.77.03h-.1s.02-.09.02-.09c.24-1.44.46-2.89.66-4.35.24-1.77.44-3.55.62-5.33.15-1.46.29-2.93.4-4.39.15-1.79.28-3.57.4-5.36v-.1s.1.02.1.02c.31.07.63.14.94.19.19.04.38.07.58.09.2.02.4.03.59.04.31,0,.62,0,.92,0h.05l.02.05c1.17,2.35,2.39,4.66,3.68,6.95,1.22,2.18,2.5,4.32,3.82,6.43ZM154.46,379.67c.15-1.43.27-2.87.37-4.31.12-1.81.2-3.62.26-5.43.06-1.73.1-3.45.11-5.17.01-1.54,0-3.09-.05-4.63v-.1s.1.01.1.01c.47.08.95.16,1.42.22.29.04.57.06.86.07.22,0,.46,0,.68-.02.48-.03.95-.07,1.43-.12h.1s0,.09,0,.09c-.14,1.45-.25,2.9-.34,4.35-.12,1.81-.19,3.62-.25,5.43l-.04,1.12c-.06,1.55-.1,3.11-.1,4.67,0,1.32.01,2.65.05,3.98v.09s-.09,0-.09,0c-.46-.06-.93-.11-1.4-.15-.31-.03-.63-.06-.95-.07-.19,0-.39,0-.58,0-.49.01-.98.04-1.47.07h-.1s0-.09,0-.09ZM190.67,373.51c-.35,0-.7.02-1.05.04-.48.02-.95.05-1.43.09-.33.03-.67.08-1,.12-.49.06-.97.12-1.46.18-.31,1.79-.66,3.58-1,5.37l-.05.22h-.07c-.24,0-.47,0-.71,0-.15,0-.29,0-.44.01-.21.02-.41.05-.62.08-.24.03-.47.08-.7.12l-.13.03.04-.13c.92-3.41,1.79-6.83,2.59-10.27.79-3.37,1.52-6.76,2.19-10.15v-.06s.15-.01.15-.01c.36.02.77.04,1.13.01.3-.03.63-.1.92-.16.08-.02.17-.04.26-.06h.06s.02.06.02.06c1.25,3.31,2.54,6.6,3.88,9.88,1.29,3.16,2.63,6.31,4,9.43l.05.11h-.12c-.44.01-.87.03-1.31.05-.32.01-.64.03-.96.06-.37.03-.73.07-1.09.12-.41.05-.82.11-1.23.17h-.06s-.02-.05-.02-.05c-.31-.84-.6-1.7-.9-2.55-.32-.91-.64-1.81-.96-2.72ZM186.26,371.37h.16c.53-.03,1.07-.05,1.6-.1.59-.05,1.18-.13,1.77-.21h.02c-.33-.94-.68-1.87-1.05-2.78-.38-.94-.79-1.87-1.22-2.79-.24,1-.48,2.01-.7,3.02-.21.95-.4,1.91-.58,2.86ZM213.94,357.92c.09.56.18,1.11.29,1.67.14.8.31,1.59.48,2.38l.3,1.4c.7-.17,1.4-.35,2.1-.54.93-.25,1.87-.49,2.8-.74l.09-.02v.09c.03.15.05.3.07.45.04.29.07.59.13.88.05.23.12.47.19.7.06.19.12.38.17.57l.02.09h-.09c-.9.13-1.79.26-2.69.4-.77.12-1.54.26-2.31.41l1.09,5.15c.15.69.3,1.37.49,2.04.16.6.34,1.19.54,1.77l.03.09-.1.02c-.43.06-.86.13-1.29.21-.32.05-.63.11-.95.18-.31.07-.61.14-.92.22-.39.1-.78.2-1.17.31l-.09.02v-.09c-.14-1.09-.29-2.17-.47-3.25-.25-1.48-.55-2.96-.87-4.42l-.66-3.11c-.35-1.64-.71-3.29-1.12-4.92-.29-1.15-.61-2.29-.97-3.42l-.03-.09h.09c1.06-.19,2.13-.37,3.18-.57.44-.08.89-.17,1.33-.26.65-.14,1.29-.29,1.94-.44.96-.23,1.91-.47,2.86-.72l.09-.02v.09c.05.24.09.48.12.72.03.18.06.36.1.54.04.18.08.36.13.53.06.23.13.46.2.68l.03.1h-.1c-.61.07-1.22.15-1.83.25-.62.1-1.23.21-1.84.34-.3.06-.61.12-.91.2-.16.04-.32.08-.47.13ZM225.35,362.78c-.99-2.58-1.47-5.44-.47-8.1.95-2.52,2.93-4.1,5.4-5.05,2.34-.9,4.76-1.11,7.04.05,2.37,1.2,3.82,3.5,4.75,5.91,1,2.6,1.52,5.51.54,8.2-.92,2.55-2.92,4.13-5.4,5.08-2.34.9-4.79,1.13-7.07-.04-2.39-1.23-3.86-3.61-4.79-6.05ZM229.39,360.96c.71,1.85,1.76,3.89,3.33,5.16,1.19.96,2.52,1.33,3.98.77,1.45-.56,2.16-1.74,2.4-3.24.32-2-.25-4.2-.97-6.05-.71-1.86-1.77-3.93-3.35-5.21-1.18-.96-2.5-1.36-3.96-.79-1.46.56-2.18,1.74-2.42,3.25-.32,2.01.28,4.25.99,6.11ZM253.88,348.74c1.55.99,3.13,1.95,4.72,2.87,1.57.9,3.15,1.77,4.75,2.6l.14.07-.14.07c-.48.25-.96.5-1.43.76-.27.15-.55.31-.81.47-.28.17-.55.36-.82.55-.36.26-.71.52-1.07.79l-.05.04-.05-.04c-1.08-.85-2.26-1.63-3.43-2.37-1.6-1.02-3.25-1.98-4.91-2.91l1.82,2.91c.51.82,1.03,1.62,1.57,2.42.48.7.96,1.4,1.47,2.09l.06.08-.09.04c-.38.18-.75.37-1.12.57-.24.13-.48.27-.71.41-.23.15-.46.3-.68.46-.35.24-.68.5-1.02.76l-.08.06-.04-.09c-.61-1.16-1.24-2.32-1.9-3.45-.8-1.4-1.64-2.77-2.5-4.13l-.53-.84c-.97-1.55-1.95-3.11-2.98-4.63-.8-1.19-1.62-2.36-2.48-3.52l-.06-.08.1-.04c.06-.02.11-.06.16-.09.46-.23.96-.48,1.4-.76.63-.39,1.26-.85,1.87-1.28.67-.48,1.35-.96,2.05-1.39,1.18-.74,2.67-1.39,4.1-1.09,1.41.3,2.44,1.46,3.17,2.63.64,1.03,1.06,2.18.95,3.4-.1,1.09-.6,1.97-1.43,2.65ZM249.8,350.06h.02c.81-.52,1.67-1.24,1.88-2.22.22-.98-.25-2.02-.76-2.84-.45-.71-1.1-1.52-1.95-1.76-.83-.22-1.7.15-2.39.58-.05.04-.13.07-.19.1-.09.05-.18.1-.26.15.21.39.43.78.66,1.17.31.52.63,1.04.95,1.55l2.04,3.27ZM261.33,332.74c.36.41.72.82,1.09,1.22.52.57,1.06,1.13,1.6,1.69l.82.85c1.73,1.8,3.48,3.6,5.26,5.35,1.06,1.04,2.14,2.06,3.24,3.04l.07.06-.07.06c-.38.31-.77.62-1.14.95-.19.16-.38.33-.56.5-.21.2-.41.41-.61.63-.31.32-.6.67-.89,1.01l-.06.07-.06-.07c-.91-1.08-1.84-2.15-2.79-3.19-1.24-1.36-2.51-2.7-3.79-4.02-.77-.8-1.55-1.59-2.33-2.38-.94-.95-1.88-1.89-2.82-2.82-.49.48-.97.98-1.42,1.5-.46.53-.91,1.08-1.33,1.64l-.07.09-.12-.16c-.29-.36-.59-.73-.9-1.05-.16-.16-.35-.33-.53-.48-.13-.12-.27-.25-.4-.37l-.07-.06.07-.06c.99-.87,1.98-1.74,2.95-2.62.58-.52,1.15-1.05,1.71-1.58.53-.51,1.04-1.04,1.55-1.56.94-.98,1.88-1.96,2.81-2.95l.07-.07.06.07c.16.2.32.39.49.58.11.12.21.25.32.36.16.17.33.34.51.5.19.18.38.35.57.52l.08.07-.09.06c-.57.41-1.13.84-1.67,1.28-.53.43-1.05.89-1.54,1.36ZM264.57,324.91c.33-.35.66-.7.98-1.06.19-.22.37-.44.54-.67.13-.18.25-.38.36-.57.24-.41.47-.83.7-1.25l.05-.09.08.06c1.13.92,2.27,1.83,3.42,2.72,1.43,1.11,2.9,2.18,4.36,3.25l.9.66c1.26.91,2.52,1.82,3.81,2.69,1.1.75,2.21,1.47,3.32,2.18l.08.05-.06.07c-.31.36-.61.71-.91,1.07-.2.25-.4.49-.59.75-.11.16-.22.32-.32.48-.27.41-.52.83-.77,1.25l-.05.08-.07-.06c-1.11-.92-2.23-1.83-3.37-2.71-1.43-1.11-2.9-2.19-4.36-3.25-1.4-1.01-2.8-2.01-4.23-2.98-1.27-.88-2.56-1.72-3.87-2.55l-.08-.05.07-.07ZM278.52,322.91c-2.55-1.08-4.94-2.72-6.15-5.29-1.15-2.43-.92-4.95.12-7.39.98-2.3,2.51-4.19,4.92-5.03,2.51-.87,5.17-.32,7.55.69,2.56,1.09,5.02,2.73,6.28,5.3,1.19,2.43.94,4.97-.1,7.42-.98,2.31-2.51,4.23-4.94,5.06-2.54.87-5.28.26-7.68-.76ZM280.01,318.74c1.82.78,4.02,1.44,6.02,1.19,1.52-.19,2.7-.88,3.32-2.32.61-1.43.25-2.76-.66-3.97-1.21-1.62-3.19-2.74-5.02-3.51-1.84-.78-4.06-1.46-6.08-1.21-1.52.19-2.71.86-3.32,2.3-.61,1.45-.27,2.78.66,4.01,1.22,1.62,3.25,2.75,5.08,3.53ZM287.82,292.83c1.78-.46,3.55-.96,5.32-1.5,1.72-.53,3.44-1.1,5.14-1.7l.15-.05-.04.15c-.15.52-.29,1.04-.42,1.56-.08.3-.15.61-.21.92-.06.32-.12.65-.15.98-.06.44-.11.88-.15,1.32v.06s-.07.01-.07.01c-1.37.21-2.74.54-4.07.89-1.84.48-3.67,1.03-5.48,1.61l3.37.65c.94.19,1.89.36,2.84.51.84.13,1.68.25,2.53.35h.1s-.03.1-.03.1c-.12.4-.24.8-.35,1.21-.07.27-.13.54-.19.8-.05.27-.09.54-.13.82-.06.42-.1.84-.13,1.26v.1s-.1-.02-.1-.02c-1.27-.35-2.54-.67-3.82-.97-1.57-.36-3.15-.69-4.73-.99l-.97-.19c-1.8-.35-3.61-.69-5.41-.98-1.42-.22-2.84-.42-4.26-.59h-.1s.04-.11.04-.11c.02-.05.03-.12.04-.18.15-.5.3-1.03.4-1.54.14-.73.24-1.5.33-2.24.11-.81.22-1.64.38-2.45.26-1.37.8-2.91,2-3.74,1.18-.83,2.73-.79,4.09-.52,1.19.23,2.31.71,3.13,1.63.73.82,1.03,1.78.97,2.86ZM286,296.71v-.02c.18-.93.24-2.06-.33-2.88-.57-.83-1.65-1.2-2.6-1.38-.83-.16-1.87-.24-2.62.23-.73.45-1.05,1.35-1.21,2.15-.01.06-.03.13-.05.2-.03.1-.05.19-.07.3.43.11.87.22,1.3.32.59.13,1.19.25,1.79.36l3.79.74ZM90.06,378.12c.36.16.72.31,1.08.47-.36-.15-.72-.31-1.08-.47ZM91.18,378.61c.41.18.83.35,1.24.52-.42-.17-.83-.35-1.24-.52ZM92.43,379.13l.54,18.59c.22.09.44.19.66.3l.24-.44c.44-.8.95-1.51,1.52-2.13l-.36-15.27c-.87-.34-1.74-.69-2.6-1.05ZM95.4,380.33c.35.14.7.27,1.05.4-.35-.13-.7-.26-1.05-.4ZM96.85,380.88l.51.19.14,12.63c1.03-.63,2.18-1.08,3.46-1.37l-.06-10c-1.36-.46-2.71-.95-4.05-1.45ZM101.23,382.45c.29.1.58.2.87.29-.29-.1-.58-.2-.87-.29ZM102.27,382.8c.26.09.52.17.77.25l-.06,9.31c1.31.31,2.49.79,3.54,1.45l-.08-.05.11-9.61c-1.43-.43-2.86-.88-4.28-1.35ZM106.79,384.22c.32.09.64.19.96.28-.32-.09-.64-.18-.96-.28ZM108.04,384.58l.45.13-.25,10.49-.03-.03c.68.68,1.28,1.49,1.79,2.41l.24.44c.1-.05.2-.1.31-.15l.36-12.5c.4.11.8.21,1.2.32-1.36-.35-2.72-.73-4.07-1.12ZM112.16,385.7c.4.1.8.21,1.2.31-.4-.1-.8-.2-1.2-.31ZM220.5,386.46c1.25-.3,2.49-.61,3.73-.94l.35,12.2c.22.09.44.19.65.3l.25-.44c.44-.8.95-1.51,1.52-2.13l-.25-10.62c.75-.21,1.51-.43,2.26-.65l.11,9.52c1.02-.63,2.18-1.08,3.45-1.37l-.06-9.24c.66-.22,1.32-.43,1.98-.66-4.59,1.56-9.27,2.89-14,4.03ZM234.67,382.38l-.06,9.98c1.28.3,2.43.76,3.45,1.4l.14-12.64c.23-.09.46-.17.69-.26-1.4.53-2.81,1.03-4.23,1.52ZM239.03,380.81c.33-.12.65-.25.97-.37-.32.13-.65.25-.97.37ZM240.22,380.36l-.37,14.84c.67.68,1.26,1.47,1.76,2.39l.24.44c.1-.05.2-.1.31-.15l.53-18.51.19-.08c-.89.36-1.78.72-2.67,1.07ZM243.19,379.16c.34-.14.68-.28,1.02-.43-.34.15-.68.29-1.02.43ZM244.71,378.52c.3-.13.6-.26.89-.39-.3.13-.6.26-.89.39ZM156.11,391.8c.87.04,1.73.07,2.6.09l.35,11.99c0,.23,0,.46.01.68.16.07.32.14.47.22l.25-.44c.48-.87,1.04-1.63,1.67-2.29l-.23-10.1c.73.02,1.46.03,2.18.04l.1,8.43c1.02-.61,2.16-1.05,3.42-1.33l-.05-7.06h-2.82v-.02c-2.64-.03-5.29-.1-7.94-.21ZM168.9,392.03l-.04,7.08c1.26.29,2.4.74,3.42,1.36l.09-8.48c.62,0,1.24-.02,1.85-.03l-.24,9.83c.74.72,1.38,1.56,1.92,2.55l.24.44.12-.06c.01-.28.02-.56.02-.85l.35-11.98c-1.67.05-3.33.08-5,.1v.02h-2.73ZM176.7,391.9c.47-.01.95-.03,1.42-.05-.47.02-.95.03-1.42.05ZM309.6,285.23h0v-.08s0-.01,0-.01h0s0-.04,0-.04h0v-.03h0v-.02h0s0-.07,0-.07h0v-.05s0,0,0,0v-.03h0s0-.02,0-.02h0s0-.11,0-.11l.69-15.77v-.05s0,0,0,0l.06.07h0s0,0,0,0h0s0,.02,0,.02h0s0,0,0,0h0s0,.01,0,.01h0s0,0,0,0v.02h.02s0,0,0,0l.08.12h0s0,0,0,0h0s0,0,0,0h0s0,0,0,0l.03.04h0s0,.02,0,.02h0s0,0,0,0h0s0,0,0,0h0s0,0,0,0h0s0,0,0,0h0s0,0,0,0h0s0,0,0,0h0s0,0,0,0h0c.04.06.08.12.12.19l.03.04c.06.09.11.17.16.26l.02.03c.05.08.1.17.14.25h0s0,0,0,0h0s0,.01,0,.01h0s0,0,0,0l.02.04h0s0,.01,0,.01h0s0,0,0,0c.04.08.08.15.12.23h0s.01.02.01.02h0s.05.1.05.1h0s.05.11.05.11h0s0,.03,0,.03h0v.03s.02.02.02.02l.07.15h0s0,.03,0,.03l.06.13v.02s.02.02.02.02v.02s.07.12.07.12h0s0,.02,0,.02v.02s.02.02.02.02h0s.1.23.1.23l.02.05c.3.73.56,1.51.8,2.34h0s0,.02,0,.02h0s0,.02,0,.02h0v.02h0s0,.02,0,.02h0v.02h0c.23.83.43,1.69.6,2.57h0s0,.03,0,.03h0s.09.46.09.46h0s0,.02,0,.02c.2,1.05.36,2.12.49,3.19h0s0,.03,0,.03h0s0,.05,0,.05v.02s0,0,0,0v.09s.01,0,.01,0l.02.18h0s.02.19.02.19h0c.2,1.73.33,3.43.43,5v.02s0,0,0,0v.03s0,0,0,0h0v.02h0s0,.17,0,.17h0v.03h0s0,.05,0,.05h0s.01.18.01.18h0v.03l.02.39v.02h0v.04h0s0,.17,0,.17h0v.11s0,.01,0,.01h0s0,.1,0,.1h0s0,.03,0,.03c.09,1.72.13,3.21.19,4.27.2,3.96.49,8.24,1.42,12.11.53,2.2,1.37,4.71,2.98,6.44l-13.74,1.18c2.49-8.31,3.96-17.04,4.37-26.07ZM285.73,262.92c-4.5-16.73-7.32-32.11.54-51.11,1.24-2.28,1.09-1.04,1.14.54.51,17.36,7.65,24.6,12.32,38.08,3.01-8.64,12.07-16.71,18.65-21.7,2.77-2.11,2.22-2.08,1.12.79-12.78,33.08,22.44,80.33,4.06,80.21-4.82,0-6.05-8.61-6.54-18.28-.31-6.03-.3-21.26-6.56-25.75-1.3-.77-2.54-.88-3.95-1l-2.46-.21-17.5-1.49-.22-.02-.19-.02-.33-.03h-.08ZM26.09,285.23h0v-.08s0-.01,0-.01h0s0-.04,0-.04h0v-.03h0v-.02h0s0,0,0,0v-.06s0,0,0,0h0v-.04h0s0-.03,0-.03h0v-.02h0s0-.11,0-.11l-.69-15.77v-.05s0,0,0,0l-.06.07h0s0,0,0,0h0v.02h0s0,0,0,0h0s0,.01,0,.01h0s0,0,0,0v.02h-.02s0,0,0,0l-.08.12h0s0,0,0,0h0s0,0,0,0h0s-.03.05-.03.05h0s0,0,0,0h0s0,0,0,0h0s0,0,0,0h0s0,0,0,0h0s0,0,0,0h0s0,0,0,0h0s0,0,0,0h0s0,0,0,0h0s0,0,0,0h0s0,.01,0,.01c-.04.06-.08.12-.12.18l-.03.04c-.06.09-.11.17-.16.26l-.02.03c-.05.08-.1.17-.15.25h0s0,0,0,0h0s0,.01,0,.01h0s0,0,0,0l-.02.04h0s0,0,0,0h0s0,.01,0,.01h0c-.04.08-.08.16-.12.24h0s0,.02,0,.02h0s-.05.1-.05.1h0s-.05.11-.05.11h0s0,.03,0,.03l-.02.03v.02s-.08.15-.08.15h0s0,.03,0,.03l-.06.13v.02s-.02.02-.02.02v.02s-.07.12-.07.12h0s0,.02,0,.02v.02s-.02.02-.02.02h0s-.09.23-.09.23l-.02.05c-.3.73-.57,1.51-.8,2.34h0s0,.02,0,.02h0v.02h0s0,.02,0,.02h0s0,.02,0,.02h0s0,.02,0,.02h0c-.23.83-.43,1.69-.6,2.57h0s0,.03,0,.03h0s-.09.46-.09.46h0s0,.02,0,.02c-.19,1.05-.35,2.12-.49,3.19h0s0,.03,0,.03h0s0,.05,0,.05v.02s0,0,0,0v.09s-.01,0-.01,0l-.02.18h0s-.02.19-.02.19h0c-.2,1.73-.33,3.43-.43,5v.02s0,0,0,0v.03h0v.02h0v.19s0,.01,0,.01v.02h0s0,.05,0,.05h0s0,.18,0,.18h0s0,.03,0,.03l-.02.39v.02h0v.04h0s0,.17,0,.17h0v.11s0,.01,0,.01h0s0,.1,0,.1h0v.03c-.09,1.72-.14,3.21-.19,4.27-.2,3.96-.49,8.24-1.42,12.11-.52,2.2-1.37,4.71-2.98,6.44l13.74,1.18c-2.49-8.31-3.96-17.04-4.37-26.07ZM49.97,262.92c4.5-16.73,7.31-32.11-.54-51.11-1.24-2.28-1.09-1.04-1.14.54-.51,17.36-7.65,24.6-12.32,38.08-3.01-8.64-12.07-16.71-18.65-21.7-2.78-2.11-2.22-2.08-1.12.79,12.77,33.08-22.44,80.33-4.06,80.21,4.82,0,6.05-8.61,6.54-18.28.3-6.03.3-21.26,6.57-25.75,1.29-.77,2.54-.88,3.95-1l2.46-.21,17.5-1.49.22-.02.19-.02.33-.03h.08ZM182.7,80.07l-.76-1.01c-1.41-1.89-26.74-1.99-28.39-.23l-.97,1.28c5.07-.58,10.16-.86,15.27-.85,4.97-.01,9.93.26,14.85.8ZM145.64,83.09c7.46-1.27,14.86-1.87,22.2-1.85,7.34-.02,14.74.58,22.2,1.85,6.36,1.65,6.79,11.57,0,13.72-7.28-1.26-14.68-1.62-22.2-1.59-7.52-.03-14.92.34-22.2,1.59-6.78-2.15-6.36-12.08,0-13.72ZM148.91,100.94c12.53-1.4,25.05-1.4,37.58,0,2.11.24,1.91-.85,1.97-2.4-6.81-1.08-13.7-1.39-20.62-1.36-7.02-.03-14.04.29-20.95,1.42.06,1.56-.13,2.58,2.03,2.34ZM150.76,406.86c9.1-.19,7.14.66,12.53,6.19.44-.3.87-.6,1.3-.9-1.01-1.87-1.68-3.96-2.04-6.26,1.31-2.37,3.22-3.33,5.29-3.75,2.07.42,3.98,1.38,5.29,3.75-.35,2.3-1.03,4.39-2.04,6.26.43.3.87.6,1.3.9,5.39-5.53,3.44-6.38,12.53-6.19-.17,4.24-4.66,3.12-6.78,6.5-1.43,2.3.23,5.53-1.42,6.9-.39.32-.89.51-1.44.63-.42-3.55-3.98-5.77-7.45-5.77s-7.03,2.21-7.45,5.77c-.55-.11-1.05-.3-1.44-.63-1.64-1.37.01-4.6-1.42-6.9-2.11-3.38-6.6-2.26-6.77-6.5ZM167.85,417.27c2.95,0,5.35,1.94,5.35,4.33s-2.39,4.33-5.35,4.33-5.35-1.94-5.35-4.33,2.39-4.33,5.35-4.33ZM248.4,80.07l-.76-1.01c-1.41-1.89-26.74-1.99-28.4-.23l-.97,1.28c5.06-.58,10.16-.86,15.27-.85,4.97-.01,9.93.26,14.85.8ZM211.35,83.09c7.46-1.27,14.86-1.87,22.2-1.85,7.34-.02,14.74.58,22.2,1.85,6.36,1.65,6.79,11.57,0,13.72-7.28-1.26-14.68-1.62-22.2-1.59-7.52-.03-14.92.34-22.2,1.59-6.78-2.15-6.36-12.08,0-13.72ZM214.62,100.94c12.53-1.4,25.05-1.4,37.58,0,2.11.24,1.91-.85,1.97-2.4-6.81-1.08-13.7-1.39-20.62-1.36-7.02-.03-14.04.29-20.96,1.42.06,1.56-.13,2.58,2.03,2.34ZM216.46,400.1c9.1-.2,7.14.65,12.53,6.18.43-.3.87-.6,1.3-.9-1-1.87-1.68-3.96-2.03-6.27,1.31-2.37,3.21-3.32,5.29-3.74,2.07.42,3.98,1.37,5.29,3.74-.35,2.31-1.03,4.4-2.04,6.27.43.3.87.6,1.3.9,5.39-5.53,3.44-6.38,12.53-6.18-.17,4.24-4.66,3.12-6.77,6.5-1.44,2.3.22,5.53-1.42,6.9-.39.32-.89.51-1.44.63-.42-3.56-3.98-5.77-7.45-5.77s-7.03,2.21-7.45,5.77c-.55-.12-1.05-.3-1.44-.63-1.65-1.37.01-4.6-1.42-6.9-2.11-3.38-6.6-2.26-6.77-6.5ZM233.55,410.5c2.95,0,5.35,1.94,5.35,4.33s-2.39,4.33-5.35,4.33-5.35-1.94-5.35-4.33,2.39-4.33,5.35-4.33ZM84.84,400.1c9.1-.2,7.14.65,12.53,6.18.43-.3.87-.6,1.3-.9-1-1.87-1.68-3.96-2.04-6.27,1.31-2.37,3.22-3.32,5.29-3.74,2.07.42,3.98,1.37,5.29,3.74-.35,2.31-1.03,4.4-2.04,6.27.44.3.87.6,1.3.9,5.39-5.53,3.44-6.38,12.53-6.18-.17,4.24-4.66,3.12-6.78,6.5-1.43,2.3.23,5.53-1.42,6.9-.39.32-.89.51-1.44.63-.42-3.56-3.98-5.77-7.45-5.77s-7.03,2.21-7.45,5.77c-.55-.12-1.05-.3-1.44-.63-1.64-1.37.02-4.6-1.42-6.9-2.11-3.38-6.6-2.26-6.77-6.5ZM101.93,410.5c2.95,0,5.35,1.94,5.35,4.33s-2.4,4.33-5.35,4.33-5.35-1.94-5.35-4.33,2.39-4.33,5.35-4.33ZM116.78,80.07l-.76-1.01c-1.41-1.89-26.75-1.99-28.4-.23l-.97,1.28c5.06-.58,10.17-.86,15.27-.85,4.97-.01,9.92.26,14.85.8ZM79.73,83.09c7.46-1.27,14.86-1.87,22.2-1.85,7.34-.02,14.74.58,22.2,1.85,6.36,1.65,6.78,11.57,0,13.72-7.28-1.26-14.68-1.62-22.2-1.59-7.52-.03-14.93.34-22.2,1.59-6.78-2.15-6.36-12.08,0-13.72ZM83,100.94c12.52-1.4,25.05-1.4,37.57,0,2.11.24,1.91-.85,1.97-2.4-6.8-1.08-13.7-1.39-20.62-1.36-7.02-.03-14.04.29-20.96,1.42.06,1.56-.13,2.58,2.03,2.34Z"/>
  <path class="cls-2" d="M194.6,294.93c-.2,0-.39-.01-.58-.02-1.6-.05-3.21-.13-4.79-.29-1.36-.14-2.79-.34-4.1-.73-.1-.03-.2-.06-.3-.09-.62-.19-1.07-.7-1.03-1.4.04-.7.56-1.15,1.19-1.27.1-.02.21-.03.31-.05,1.31-.22,2.69-.34,4.01-.46,1.68-.16,3.37-.31,5.06-.47-.72-.15-1.45-.31-2.17-.47-1.74-.39-3.49-.81-5.21-1.31-1.45-.43-2.97-.92-4.33-1.57-.06-.03-.12-.05-.18-.08-.59-.26-.99-.83-.85-1.54.13-.68.74-1.09,1.38-1.09.09,0,.18,0,.27.01,1.43.07,2.87.2,4.3.33,1.46.13,2.91.27,4.36.4-.03,0-.06-.02-.1-.03-1.79-.64-3.59-1.31-5.34-2.05-1.46-.61-2.98-1.29-4.34-2.1-.61-.36-1.22-.73-.92-1.73.21-.69.85-1.02,1.5-.94.1.01.2.03.3.05,1.52.26,3.04.61,4.53.96,1.35.32,2.7.65,4.05.99-1.53-.8-3.05-1.62-4.55-2.47-1.43-.82-2.9-1.68-4.23-2.65-.61-.44-1.18-1-.71-1.93.19-.38.49-.56.69-.64.49-.2.82-.07,1.26.05,1.58.42,3.16.99,4.69,1.55,1.26.47,2.52.97,3.77,1.47-1.3-.94-2.6-1.9-3.87-2.87-1.37-1.05-2.76-2.14-4.03-3.32-.55-.52-1.04-1.17-.45-2.02.35-.5.98-.69,1.54-.51.17.05.15.06.2.08.09.04.18.08.27.11,1.59.63,3.16,1.43,4.67,2.22,1.15.6,2.28,1.22,3.4,1.86-1.06-1-2.11-2.02-3.14-3.05-1.25-1.25-2.53-2.57-3.63-3.95-.45-.57-.83-1.22-.17-1.99.51-.59,1.19-.46,1.24-.45.17.03.27.07.31.09.12.05.12.05.19.09.08.05.16.09.24.14,1.55.87,3.06,1.94,4.48,2.99,1.38,1.02,2.74,2.07,4.08,3.13-1.02-1.32-2.03-2.66-3.01-4.01-1.07-1.48-2.21-3.08-3.08-4.68-.06-.11-.12-.22-.19-.34-.31-.59-.29-1.28.27-1.77.56-.48,1.25-.39,1.79,0,.1.08.21.16.31.23,1.44,1.1,2.83,2.44,4.12,3.7,1.14,1.12,2.26,2.26,3.37,3.41-.8-1.41-1.58-2.84-2.32-4.28-.8-1.54-1.6-3.15-2.21-4.77-.04-.11-.08-.22-.13-.34-.03-.09-.03-.07-.07-.22-.01-.05-.04-.15-.04-.33,0-.05-.03-.75.63-1.16.91-.56,1.5,0,2.02.55,1.19,1.29,2.29,2.75,3.33,4.16.84,1.14,1.66,2.31,2.46,3.47-.45-1.2-.89-2.4-1.31-3.62-.56-1.62-1.11-3.3-1.49-4.96-.03-.14-.06-.27-.09-.41-.01-.11-.02-.12-.02-.28,0-.57.35-1.1.9-1.3,1.08-.39,1.46.35,1.89.98.96,1.42,1.82,2.96,2.64,4.46.74,1.36,1.46,2.73,2.16,4.11-.31-1.31-.61-2.61-.88-3.92-.33-1.6-.66-3.26-.83-4.89-.01-.11-.03-.23-.04-.35,0-.09,0-.08,0-.23.02-.59.41-1.12.99-1.28,1.05-.29,1.43.41,1.77,1.08.75,1.46,1.38,3.04,1.96,4.57.61,1.59,1.17,3.19,1.72,4.8-.13-1.36-.25-2.73-.35-4.09-.12-1.52-.24-3.08-.26-4.61,0-.1,0-.21,0-.32.02-.66.43-1.25,1.14-1.37,1.04-.17,1.34.52,1.61,1.19.59,1.47,1.03,3.07,1.41,4.6.46,1.85.85,3.72,1.21,5.59,0,.02,0,.04,0,.06.09-1.42.17-2.85.26-4.27.09-1.42.18-2.85.33-4.27,0-.1.02-.21.03-.31.09-.65.54-1.2,1.26-1.24.73-.05,1.24.43,1.42,1.06.03.09.05.18.08.27.43,1.43.68,2.98.88,4.46.23,1.74.37,3.51.49,5.26.04.71.09,1.43.13,2.15.42-1.61.82-3.23,1.24-4.85.33-1.29.66-2.62,1.08-3.88.03-.1.07-.2.11-.3.23-.6.78-1.02,1.47-.93.69.09,1.1.64,1.18,1.28,0,.09.02.18.03.27.18,1.35.16,2.8.09,4.16-.08,1.6-.25,3.2-.44,4.78-.02.19-.05.39-.08.59.44-.95.88-1.9,1.33-2.84.48-1.01.97-2.04,1.52-3.02.36-.64.91-1.18,1.78-.9.63.2.94.78.95,1.39,0,.09,0,.18,0,.26.08,1.32-.19,2.83-.47,4.12-.35,1.63-.82,3.26-1.32,4.86-.03.09-.06.19-.09.29.57-.75,1.15-1.49,1.73-2.23.59-.74,1.23-1.55,1.9-2.21.48-.47.99-.84,1.75-.49.55.26.83.82.79,1.4,0,.1-.02.19-.03.28-.24,2.27-1.64,5.14-2.7,7.16-.36.7-.74,1.39-1.13,2.07.86-.67,1.7-1.35,2.54-2.03.58-.47,1.26-1.06,1.88-1.46.54-.34,1.13-.5,1.73-.08.44.3.63.79.59,1.3,0,.09-.02.17-.03.26-.19,1.87-2.51,4.76-4.83,7.3l3.68-1.38.11-.02c.09-.02.18-.04.27-.05.55-.09,1.11.11,1.43.59.44.67.19,1.23-.18,1.77-4.07,5.94-10.75,8.25-17.73,7.97-.46-.02-1.01.04-1.57.17l12.47,13.69c.42.46.74.91.51,1.61-.19.57-.55.75-1.04.94-.34.13-.58.33-.75.65-.27.49-.65.85-1.26.87-.73.03-1.01-.36-1.39-.83l-11.55-14.33c-.22.53-.36,1.07-.42,1.53-.88,6.86-4.37,12.88-10.54,16.24-.6.33-1.25.49-1.85-.07-.43-.4-.52-1-.33-1.54.03-.08.06-.16.09-.24l.04-.1,1.8-3.27c-2.81,1.85-5.97,3.65-7.84,3.55-.09,0-.17,0-.26-.01-.51-.04-.97-.3-1.2-.78-.32-.65-.07-1.21.35-1.69.48-.56,1.17-1.13,1.72-1.63.81-.73,1.61-1.45,2.4-2.2-.73.27-1.46.54-2.2.79-2.15.74-5.21,1.69-7.48,1.58-.09,0-.18,0-.27-.01-.59-.04-1.1-.37-1.29-.96-.25-.8.19-1.29.74-1.69.77-.57,1.66-1.07,2.48-1.54.82-.47,1.66-.93,2.49-1.39-.12.02-.23.03-.35.05-1.66.24-3.35.45-5.03.55-1.32.08-2.87.11-4.16-.18-.11-.02-.22-.05-.33-.08-.6-.16-1.06-.62-1.09-1.28-.03-.66.39-1.15.97-1.37.09-.03.19-.07.28-.1,1.04-.39,2.13-.71,3.2-1.03.98-.29,1.96-.58,2.95-.86ZM217.98,294.02c-.81,6.34-3.99,12.04-9.86,15.23-.4.22-.33.19-.19-.21l4.24-7.69c-.05-.16-.15-.18-.32-.07-2.83,1.96-8.76,6.27-11.12,6.14-.37-.02-.42.02-.16-.27.79-.91,5.73-4.94,7.36-7.35-.02-.29-.18-.39-.48-.28-3.15,1.24-9.97,4.12-13.39,3.95-.43-.02-.45.02-.09-.25,1.85-1.37,7.93-4.4,10.6-6.09.1-.17.01-.27-.26-.29v-.02c-4.41.78-12.15,2.25-15.41,1.52-.53-.12-.46-.09,0-.27,2.71-1.01,9.99-2.88,13.54-4.07.09-.11.14-.23-.16-.35-4.34-.06-12.71.16-16.8-1.05-.5-.15-.51-.12.01-.21,2.23-.38,7.93-.76,12.62-1.31,1.15-.13,2.24-.28,3.2-.43.24-.17.39-.33-.09-.49-4.86-1-13.82-2.57-18.02-4.58-.31-.15-.46-.17-.02-.14,3.94.2,12.94,1.23,17.88,1.5.22-.1.38-.22.03-.39-4.99-1.71-14.16-4.61-18.27-7.05-.32-.19-.51-.24-.02-.16,4.31.74,13.67,3.3,18.74,4.56.3-.05.32-.16.09-.31-4.92-2.55-14.04-6.95-18.01-9.83-.23-.17-.32-.23-.3-.24.02,0,.16.04.41.1,4.47,1.19,13.76,5.21,18.79,7.52.23-.02.26-.1.11-.23-4.74-3.46-13.43-9.33-17.07-12.73-.43-.4-.3-.29.15-.11,4.44,1.76,13.29,7.04,18.17,10.27.26.17.35-.03.14-.23-4.4-4.16-12.35-11.12-15.46-15.04-.29-.36-.29-.33.11-.11,4.37,2.46,12.55,9.39,17.21,13.25.19.05.26-.03.23-.23-4.26-5.06-11.07-13.6-13.13-17.39-.32-.58-.34-.56.18-.16,3.53,2.7,10.96,10.72,15.21,15.61.12.05.17,0,.18-.13-2.96-5-8.55-14.14-10.36-18.95-.21-.56-.25-.57.17-.12,3.4,3.69,9.14,12.74,12.54,17.66.14.05.21.02.21-.1-2.44-5.28-6.39-14.99-7.46-19.71-.17-.74-.05-.4.25.04,2.75,4.04,7.18,13.45,9.85,18.65.09.08.18.05.26-.08-1.53-5.36-4.1-15.13-4.58-19.71-.06-.59-.07-.51.18-.02,2.22,4.33,5.18,14.01,6.94,19.23.12.14.23.13.32-.04-.47-5.18-1.58-14.8-1.65-19.16,0-.53,0-.37.16.03,1.79,4.42,3.25,13.91,4.17,19.1.12.19.25.2.39.03.49-4.89.83-13.9,1.23-17.78.05-.53.04-.43.17.02,1.36,4.49,1.51,13.56,1.76,18.42.09.22.23.27.41.14,1.55-4.67,3.31-12.67,4.22-15.38.17-.5.13-.38.19.07.57,4.23-.93,12.45-1.53,16.75.02.2.13.27.32.22,1.72-3.35,4.69-10.27,6.12-12.82.28-.5.2-.27.23.18.21,3.31-2.42,10.7-3.86,14.9,0,.19.02.35.27.32,2.08-2.38,6-7.91,7.64-9.54.29-.29.28-.33.23.1-.35,3.42-4.24,9.72-5.95,12.64-.11.33-.04.5.21.52,2.63-1.24,7.36-5.51,8.38-6.14.33-.21.28-.17.24.2-.23,2.27-5.27,7.38-7.76,9.99-.21.26-.2.42.02.48l8.29-3.12c.4-.08.38-.11.15.23-3.84,5.59-10.12,7.65-16.57,7.39-.03,0-.07,0-.1,0,2.34-.91,4.84-1.52,6.78-3.11.41-.34-.01-.86-.43-.52-1.89,1.55-4.48,2.16-6.73,3.05,2.34-1.84,4.79-3.85,6.31-6.45.27-.46-.31-.8-.58-.34-1.59,2.71-4.24,4.8-6.7,6.7,2.34-2.79,4.3-5.86,5.49-9.36.17-.5-.46-.72-.63-.22-1.18,3.46-3.13,6.5-5.47,9.26,1.85-3.48,3.13-7.33,3.79-11.16.09-.53-.57-.64-.66-.12-.66,3.77-1.91,7.58-3.75,11,1.25-4.01,1.78-8.11,1.7-12.3-.01-.53-.68-.52-.67.01.08,4.03-.41,7.98-1.59,11.85.41-4.12.11-8.27-.71-12.35-.1-.52-.76-.39-.66.13.79,3.94,1.09,7.95.72,11.93-.31-4.13-1.19-8.14-2.56-12.11-.18-.5-.81-.28-.63.22,1.36,3.91,2.22,7.86,2.52,11.93-1.01-4.06-2.45-7.9-4.23-11.78-.22-.48-.83-.21-.61.28,1.79,3.91,3.21,7.69,4.22,11.79-1.74-3.89-3.66-7.55-5.99-11.16-.29-.45-.85-.08-.56.36,2.29,3.55,4.21,7.24,5.92,11.07-2.42-3.5-4.98-6.9-7.59-10.26-.32-.42-.86,0-.53.41,2.65,3.43,5.1,6.7,7.56,10.27-3.15-2.98-6.02-5.9-9-9.04-.37-.39-.85.07-.49.46,2.92,3.09,5.89,6.14,8.98,9.07-3.52-2.27-6.87-4.74-10.03-7.54-.4-.36-.84.15-.44.5,3.22,2.85,6.53,5.32,10.12,7.63-3.9-1.62-7.42-3.6-11.01-5.97-.45-.3-.82.26-.37.56,3.56,2.35,7.14,4.35,11,5.98-3.97-.92-7.74-2.39-11.4-4.32-.47-.25-.79.34-.32.59,3.71,1.96,7.54,3.45,11.57,4.38-3.99-.24-7.91-1.15-11.68-2.54-.5-.18-.73.45-.23.63,3.9,1.44,7.96,2.37,12.09,2.59-4,.57-7.98.46-11.95-.24-.53-.09-.64.57-.11.66,4.13.73,8.26.83,12.42.21-3.66,1.29-7.62,1.94-11.45,2.02-.53,0-.52.68.02.67,3.88-.07,7.89-.74,11.61-2.04-3.08,1.88-6.38,3.35-9.99,3.98-.52.09-.41.75.12.66,3.64-.64,6.97-2.11,10.09-3.99-2.25,2.14-4.72,4.45-7.64,5.6-.49.2-.25.82.25.63,2.8-1.11,5.16-3.22,7.34-5.25-1.23,2.08-2.22,4.55-4.05,6.18-.4.36.05.85.45.5,1.88-1.68,2.86-4.07,4.12-6.24,0,.04-.01.08-.02.12ZM220.13,291.03l12.17,15.09c.29.36.29.48.45.18.33-.62.83-1.03,1.46-1.27.3-.11.32-.04,0-.39l-13.09-14.38c-.62-.68-1.55.07-.99.76ZM146.5,238.81c-.19,0-.39,0-.58-.02-1.6-.05-3.21-.13-4.8-.29-1.36-.14-2.79-.34-4.1-.73-.1-.03-.2-.06-.3-.09-.62-.19-1.07-.7-1.03-1.4.04-.71.56-1.15,1.19-1.27.1-.02.21-.03.31-.05,1.31-.22,2.68-.34,4-.46,1.68-.16,3.37-.31,5.06-.47-.72-.15-1.44-.31-2.17-.47-1.75-.39-3.49-.81-5.21-1.31-1.46-.42-2.97-.91-4.33-1.57-.06-.03-.12-.05-.18-.08-.59-.26-.99-.83-.85-1.53.13-.68.74-1.09,1.38-1.09.09,0,.18,0,.27,0,1.43.07,2.87.2,4.3.33,1.46.13,2.91.27,4.36.41-.03-.01-.06-.02-.1-.04-1.79-.64-3.58-1.31-5.34-2.05-1.46-.61-2.98-1.29-4.34-2.1-.61-.36-1.22-.73-.92-1.73.21-.69.85-1.02,1.51-.94.1,0,.2.03.3.04,1.52.26,3.04.61,4.53.96,1.35.32,2.7.65,4.05.99-1.53-.8-3.05-1.62-4.55-2.48-1.43-.81-2.9-1.68-4.24-2.65-.6-.44-1.18-1-.71-1.93.19-.38.49-.56.7-.64.49-.2.81-.07,1.25.05,1.58.42,3.16.99,4.68,1.56,1.26.47,2.52.96,3.77,1.47-1.3-.94-2.6-1.89-3.87-2.87-1.37-1.05-2.76-2.14-4.03-3.32-.55-.52-1.04-1.17-.45-2.02.35-.5.98-.69,1.54-.51.17.05.15.05.2.07.09.04.18.08.27.11,1.59.63,3.17,1.43,4.68,2.22,1.14.6,2.28,1.22,3.4,1.86-1.06-1.01-2.11-2.02-3.14-3.05-1.25-1.25-2.53-2.57-3.63-3.95-.45-.57-.83-1.22-.17-1.99.51-.59,1.19-.46,1.24-.45.17.03.27.07.31.09.12.05.12.05.19.09.08.04.16.09.24.13,1.55.86,3.06,1.94,4.48,2.99,1.38,1.01,2.74,2.07,4.08,3.14-1.02-1.32-2.03-2.65-3.01-4.01-1.07-1.48-2.21-3.08-3.08-4.68-.06-.12-.12-.23-.18-.34-.31-.59-.29-1.28.27-1.76.56-.48,1.25-.39,1.79,0,.1.08.2.16.31.24,1.44,1.1,2.83,2.44,4.12,3.7,1.14,1.11,2.26,2.26,3.37,3.41-.8-1.41-1.58-2.83-2.32-4.27-.8-1.54-1.59-3.15-2.21-4.77-.04-.11-.08-.22-.13-.33-.03-.09-.03-.07-.07-.22-.01-.06-.04-.15-.04-.33,0-.05-.03-.75.63-1.16.9-.56,1.5,0,2.02.55,1.19,1.29,2.29,2.75,3.33,4.16.84,1.15,1.66,2.31,2.46,3.47-.45-1.2-.89-2.41-1.31-3.62-.56-1.62-1.11-3.3-1.49-4.96-.03-.14-.06-.27-.08-.41-.02-.11-.03-.12-.03-.28,0-.57.35-1.1.9-1.3,1.09-.39,1.46.35,1.89.98.96,1.42,1.82,2.96,2.64,4.46.74,1.36,1.46,2.73,2.16,4.11-.31-1.3-.6-2.61-.88-3.92-.33-1.6-.66-3.26-.83-4.88-.01-.12-.02-.23-.03-.35,0-.1-.01-.09,0-.23.02-.59.41-1.11.99-1.28,1.04-.29,1.42.41,1.77,1.07.75,1.46,1.38,3.04,1.96,4.57.61,1.59,1.17,3.2,1.73,4.8-.13-1.36-.25-2.73-.36-4.09-.12-1.53-.23-3.08-.26-4.61,0-.11,0-.21,0-.32.02-.66.43-1.25,1.14-1.37,1.04-.17,1.34.52,1.61,1.19.59,1.47,1.03,3.07,1.41,4.6.46,1.85.84,3.72,1.21,5.58,0,.02,0,.04.01.06.08-1.43.16-2.85.26-4.27.09-1.42.19-2.85.33-4.27.01-.1.02-.21.03-.31.09-.65.55-1.2,1.26-1.25.73-.05,1.24.43,1.42,1.06.02.09.05.18.08.26.43,1.43.68,2.98.88,4.46.23,1.74.38,3.51.49,5.26.05.71.09,1.43.13,2.14.42-1.61.82-3.23,1.24-4.85.33-1.29.66-2.62,1.08-3.88.04-.1.07-.2.11-.3.23-.6.78-1.02,1.47-.92.69.09,1.11.64,1.18,1.27.01.09.02.18.03.27.19,1.35.16,2.8.1,4.16-.08,1.6-.25,3.2-.44,4.78-.03.2-.05.39-.08.59.44-.95.88-1.9,1.33-2.84.48-1.01.97-2.04,1.51-3.02.36-.64.91-1.18,1.78-.9.63.2.94.78.95,1.39,0,.09,0,.17,0,.26.08,1.32-.19,2.83-.47,4.12-.36,1.64-.82,3.26-1.32,4.86-.03.09-.06.19-.09.28.57-.75,1.15-1.49,1.73-2.23.59-.74,1.23-1.55,1.9-2.21.48-.47.99-.84,1.75-.49.55.25.83.82.79,1.39,0,.1-.02.19-.03.28-.23,2.27-1.64,5.15-2.7,7.16-.36.7-.74,1.39-1.12,2.07.86-.66,1.7-1.35,2.54-2.03.58-.47,1.25-1.06,1.88-1.45.54-.34,1.13-.5,1.73-.09.44.3.63.79.59,1.31,0,.08-.02.17-.03.25-.19,1.87-2.51,4.76-4.83,7.3l3.68-1.38.11-.02c.09-.02.18-.04.26-.05.55-.09,1.11.11,1.43.59.44.67.19,1.23-.18,1.77-4.07,5.93-10.75,8.25-17.73,7.97-.46-.02-1.01.04-1.56.17l12.46,13.69c.42.46.74.91.51,1.61-.19.57-.55.75-1.04.94-.34.13-.58.33-.75.65-.27.49-.65.85-1.26.87-.73.03-1.01-.36-1.39-.83l-11.55-14.33c-.22.53-.36,1.07-.42,1.53-.88,6.86-4.37,12.88-10.54,16.23-.6.33-1.25.5-1.85-.07-.43-.4-.52-1.01-.33-1.54.03-.08.06-.16.09-.24l.04-.1,1.8-3.27c-2.81,1.85-5.97,3.65-7.84,3.55-.09,0-.17,0-.26-.01-.51-.04-.97-.3-1.2-.78-.32-.66-.07-1.21.35-1.7.48-.55,1.18-1.13,1.73-1.63.8-.73,1.61-1.45,2.4-2.2-.73.28-1.46.54-2.2.79-2.15.73-5.21,1.69-7.48,1.57-.09,0-.18,0-.27-.01-.59-.04-1.1-.37-1.28-.96-.25-.8.19-1.29.74-1.69.77-.57,1.66-1.07,2.48-1.54.82-.47,1.65-.93,2.49-1.38-.12.02-.23.04-.35.05-1.66.24-3.35.46-5.03.55-1.32.08-2.86.11-4.16-.18-.11-.02-.22-.05-.33-.08-.6-.16-1.06-.62-1.09-1.28-.03-.66.39-1.15.97-1.37.09-.03.19-.06.28-.1,1.04-.39,2.13-.71,3.2-1.03.98-.29,1.97-.57,2.95-.86ZM169.88,237.9c-.81,6.34-3.99,12.04-9.86,15.23-.4.22-.33.19-.19-.21l4.24-7.7c-.05-.15-.15-.18-.32-.07-2.83,1.96-8.76,6.26-11.12,6.14-.37-.02-.42.02-.16-.27.79-.91,5.74-4.94,7.36-7.35-.02-.29-.18-.39-.48-.28-3.15,1.24-9.96,4.13-13.39,3.95-.44-.02-.45.02-.09-.25,1.85-1.37,7.93-4.4,10.6-6.09.1-.17.01-.27-.26-.3v-.02c-4.41.78-12.15,2.25-15.41,1.52-.53-.12-.46-.09.01-.26,2.71-1.01,9.98-2.89,13.54-4.07.09-.11.14-.23-.16-.35-4.34-.06-12.71.17-16.8-1.05-.5-.15-.5-.12.01-.2,2.23-.38,7.93-.76,12.62-1.31,1.15-.14,2.24-.28,3.2-.44.24-.17.4-.33-.09-.49-4.86-1-13.82-2.56-18.02-4.58-.31-.15-.45-.17-.02-.14,3.94.2,12.93,1.24,17.88,1.5.22-.1.38-.21.03-.39-4.99-1.71-14.16-4.61-18.27-7.06-.32-.19-.51-.24-.02-.16,4.31.73,13.67,3.3,18.73,4.56.3-.05.32-.16.09-.32-4.92-2.55-14.04-6.95-18.01-9.83-.23-.17-.32-.23-.3-.24.02,0,.16.04.41.1,4.47,1.19,13.76,5.21,18.78,7.52.23-.02.27-.1.11-.23-4.74-3.46-13.43-9.33-17.08-12.73-.43-.4-.3-.29.15-.11,4.44,1.76,13.29,7.04,18.17,10.27.26.17.35-.02.14-.23-4.4-4.16-12.35-11.12-15.46-15.04-.29-.36-.29-.33.11-.11,4.38,2.46,12.55,9.39,17.21,13.25.18.05.26-.02.23-.23-4.26-5.06-11.07-13.6-13.13-17.39-.32-.58-.34-.56.18-.16,3.53,2.7,10.96,10.72,15.21,15.61.11.05.17,0,.18-.13-2.96-5-8.55-14.14-10.36-18.95-.21-.57-.25-.57.17-.12,3.41,3.69,9.14,12.74,12.54,17.66.14.04.21.01.21-.1-2.44-5.28-6.39-14.99-7.46-19.71-.17-.74-.05-.4.25.04,2.75,4.04,7.18,13.45,9.85,18.64.1.08.18.05.27-.08-1.53-5.36-4.1-15.13-4.58-19.7-.06-.6-.07-.51.18-.02,2.22,4.33,5.18,14,6.94,19.23.12.14.23.13.32-.03-.48-5.19-1.58-14.8-1.65-19.16,0-.54,0-.38.16.02,1.79,4.43,3.25,13.91,4.17,19.1.11.19.25.2.39.03.49-4.9.83-13.9,1.23-17.79.06-.53.04-.43.17.02,1.36,4.49,1.51,13.56,1.76,18.43.09.22.23.27.41.14,1.56-4.67,3.31-12.66,4.22-15.38.17-.5.13-.39.19.06.57,4.23-.92,12.45-1.53,16.75.02.2.13.27.32.22,1.72-3.35,4.69-10.27,6.12-12.82.28-.5.2-.27.23.18.21,3.3-2.42,10.7-3.85,14.9,0,.19.01.35.27.32,2.08-2.38,6-7.91,7.63-9.54.3-.29.28-.33.23.1-.35,3.42-4.24,9.72-5.95,12.65-.11.32-.04.49.21.52,2.63-1.24,7.36-5.51,8.38-6.14.33-.21.28-.17.24.2-.23,2.27-5.27,7.37-7.77,9.98-.21.26-.2.42.02.48l8.29-3.12c.4-.08.38-.1.15.23-3.84,5.59-10.12,7.65-16.57,7.39-.03,0-.07,0-.1,0,2.34-.9,4.84-1.52,6.78-3.11.41-.34-.01-.86-.42-.52-1.89,1.55-4.48,2.16-6.73,3.06,2.34-1.84,4.79-3.85,6.31-6.45.27-.46-.31-.8-.58-.34-1.59,2.71-4.25,4.8-6.7,6.69,2.34-2.79,4.3-5.86,5.49-9.36.17-.5-.46-.72-.63-.22-1.18,3.46-3.13,6.5-5.46,9.26,1.85-3.47,3.12-7.33,3.79-11.16.09-.52-.57-.64-.66-.12-.66,3.77-1.91,7.58-3.74,11,1.25-4.01,1.78-8.11,1.7-12.31-.01-.53-.68-.52-.67.01.08,4.03-.41,7.98-1.59,11.85.41-4.12.11-8.27-.71-12.35-.11-.52-.77-.39-.66.13.79,3.94,1.09,7.95.72,11.93-.31-4.13-1.19-8.14-2.56-12.11-.17-.5-.81-.29-.63.22,1.35,3.91,2.22,7.86,2.52,11.93-1.02-4.06-2.45-7.91-4.23-11.78-.22-.48-.83-.21-.61.28,1.79,3.91,3.2,7.69,4.21,11.79-1.73-3.89-3.66-7.55-5.99-11.16-.29-.45-.85-.08-.57.36,2.29,3.55,4.21,7.24,5.92,11.07-2.42-3.5-4.98-6.9-7.59-10.26-.32-.42-.86-.01-.53.41,2.65,3.43,5.1,6.7,7.56,10.27-3.16-2.97-6.01-5.9-9-9.04-.36-.39-.85.07-.49.46,2.93,3.09,5.89,6.14,8.98,9.07-3.52-2.28-6.87-4.74-10.03-7.55-.4-.36-.84.15-.45.5,3.22,2.86,6.54,5.32,10.12,7.63-3.9-1.62-7.42-3.6-11.01-5.97-.45-.29-.81.27-.37.56,3.56,2.35,7.14,4.35,11,5.98-3.97-.92-7.74-2.38-11.4-4.32-.47-.25-.79.34-.31.59,3.71,1.96,7.54,3.45,11.57,4.38-3.99-.24-7.91-1.15-11.68-2.54-.5-.18-.73.45-.23.63,3.9,1.44,7.96,2.37,12.09,2.59-4,.57-7.98.46-11.95-.24-.53-.09-.64.57-.12.66,4.13.73,8.27.83,12.42.21-3.66,1.29-7.62,1.95-11.45,2.02-.53,0-.52.68.01.67,3.89-.07,7.89-.74,11.61-2.04-3.08,1.88-6.39,3.35-9.99,3.98-.52.1-.41.75.12.66,3.64-.64,6.97-2.11,10.09-3.99-2.25,2.14-4.72,4.45-7.64,5.6-.49.19-.25.82.25.62,2.8-1.11,5.16-3.22,7.34-5.25-1.23,2.08-2.23,4.55-4.05,6.18-.4.36.05.86.45.5,1.87-1.68,2.86-4.06,4.11-6.24,0,.04-.01.08-.02.12ZM172.03,234.91l12.17,15.09c.29.36.29.48.45.18.34-.62.83-1.03,1.46-1.27.3-.11.32-.04,0-.39l-13.09-14.38c-.62-.68-1.55.06-.99.76ZM98.4,182.69c-.19,0-.39,0-.58-.01-1.6-.05-3.21-.13-4.8-.29-1.36-.14-2.79-.34-4.1-.73-.1-.03-.2-.06-.3-.09-.62-.19-1.07-.7-1.03-1.4.04-.71.56-1.15,1.19-1.27.1-.02.21-.03.31-.05,1.31-.22,2.68-.34,4-.46,1.69-.16,3.37-.31,5.06-.47-.72-.15-1.44-.31-2.16-.47-1.75-.39-3.5-.81-5.21-1.31-1.45-.42-2.97-.91-4.33-1.57-.06-.03-.12-.05-.18-.08-.59-.26-.99-.83-.85-1.53.14-.68.74-1.09,1.38-1.09.09,0,.18,0,.27,0,1.43.07,2.87.2,4.3.33,1.46.13,2.91.27,4.36.41-.03-.01-.06-.02-.09-.04-1.8-.64-3.58-1.31-5.34-2.04-1.46-.61-2.98-1.29-4.34-2.1-.61-.36-1.22-.74-.91-1.74.21-.69.85-1.02,1.51-.94.1,0,.2.03.3.04,1.52.26,3.03.61,4.53.96,1.35.32,2.7.65,4.05.99-1.53-.8-3.05-1.62-4.55-2.47-1.43-.82-2.9-1.69-4.23-2.65-.6-.44-1.18-1-.71-1.93.19-.38.5-.56.7-.64.49-.2.82-.07,1.26.05,1.58.42,3.16.99,4.68,1.56,1.26.47,2.52.96,3.77,1.47-1.3-.94-2.6-1.9-3.87-2.87-1.37-1.05-2.76-2.14-4.03-3.32-.55-.51-1.04-1.17-.45-2.02.35-.5.98-.69,1.55-.51.17.05.15.05.19.07.09.04.18.08.27.11,1.59.63,3.17,1.43,4.68,2.22,1.14.6,2.28,1.22,3.4,1.86-1.06-1-2.11-2.02-3.14-3.05-1.25-1.25-2.53-2.57-3.62-3.95-.45-.57-.83-1.22-.17-1.99.51-.59,1.19-.46,1.24-.45.17.03.27.07.31.09.12.05.12.06.19.09.08.04.15.09.23.13,1.55.87,3.06,1.94,4.48,2.99,1.38,1.01,2.74,2.07,4.08,3.13-1.02-1.32-2.03-2.65-3-4.01-1.07-1.48-2.21-3.08-3.08-4.68-.06-.11-.12-.23-.19-.34-.31-.59-.29-1.28.27-1.76.56-.48,1.25-.39,1.78,0,.1.08.21.16.31.24,1.44,1.1,2.83,2.44,4.12,3.7,1.14,1.12,2.26,2.26,3.37,3.41-.8-1.41-1.58-2.83-2.32-4.27-.8-1.54-1.6-3.15-2.21-4.77-.04-.11-.08-.22-.12-.33-.04-.09-.04-.07-.07-.22-.01-.06-.04-.15-.04-.33,0-.05-.03-.75.63-1.16.9-.57,1.5,0,2.02.55,1.19,1.29,2.29,2.75,3.33,4.16.84,1.14,1.66,2.3,2.46,3.48-.45-1.2-.89-2.41-1.31-3.62-.56-1.62-1.11-3.3-1.48-4.96-.03-.14-.06-.28-.09-.42-.02-.11-.02-.12-.03-.28,0-.57.35-1.1.9-1.3,1.08-.39,1.45.35,1.88.99.96,1.42,1.82,2.96,2.64,4.46.74,1.36,1.46,2.73,2.16,4.11-.31-1.3-.6-2.61-.88-3.92-.33-1.6-.66-3.26-.83-4.88-.01-.12-.02-.23-.03-.35,0-.1-.01-.09,0-.23.02-.58.41-1.11.99-1.28,1.05-.29,1.43.41,1.77,1.07.75,1.46,1.38,3.04,1.97,4.58.61,1.58,1.18,3.19,1.72,4.8-.13-1.36-.25-2.73-.36-4.09-.12-1.53-.23-3.08-.26-4.61,0-.11,0-.21,0-.32.02-.66.43-1.26,1.14-1.37,1.04-.17,1.34.52,1.61,1.19.59,1.47,1.03,3.07,1.41,4.6.46,1.85.84,3.71,1.21,5.59,0,.02,0,.04.01.06.08-1.42.17-2.85.26-4.27.09-1.42.18-2.86.33-4.27.01-.1.02-.21.03-.31.09-.65.55-1.2,1.26-1.25.74-.05,1.24.43,1.42,1.06.03.09.05.18.08.26.43,1.43.69,2.98.88,4.46.23,1.75.38,3.51.49,5.26.05.71.09,1.43.13,2.14.42-1.61.82-3.23,1.24-4.85.33-1.29.66-2.62,1.08-3.88.04-.1.07-.2.11-.3.23-.6.78-1.02,1.48-.92.68.09,1.1.64,1.18,1.27.01.09.02.18.03.27.19,1.36.16,2.8.09,4.16-.08,1.6-.25,3.2-.44,4.78-.02.2-.05.39-.07.59.43-.95.88-1.9,1.32-2.84.48-1.01.97-2.04,1.52-3.02.36-.64.91-1.18,1.78-.9.63.2.94.78.95,1.39,0,.09,0,.17,0,.26.09,1.32-.19,2.83-.47,4.11-.36,1.64-.82,3.26-1.32,4.86-.03.09-.06.19-.09.28.57-.74,1.15-1.49,1.73-2.23.59-.74,1.23-1.54,1.9-2.21.48-.47.99-.84,1.75-.49.55.25.83.82.79,1.4,0,.09-.02.18-.03.28-.23,2.27-1.64,5.15-2.69,7.16-.36.7-.74,1.39-1.13,2.07.86-.66,1.7-1.35,2.54-2.04.57-.47,1.25-1.06,1.88-1.45.54-.34,1.13-.5,1.73-.09.44.3.63.79.59,1.31,0,.09-.02.17-.03.26-.19,1.87-2.51,4.76-4.83,7.3l3.68-1.38.11-.02c.09-.02.18-.04.27-.05.55-.09,1.11.11,1.43.59.44.67.19,1.22-.18,1.77-4.07,5.93-10.75,8.25-17.73,7.97-.46-.02-1.01.04-1.56.18l12.46,13.69c.42.46.74.91.51,1.61-.19.57-.55.75-1.04.94-.34.13-.58.33-.75.65-.27.49-.65.85-1.26.88-.73.03-1.01-.36-1.39-.83l-11.56-14.32c-.22.53-.36,1.07-.42,1.53-.88,6.86-4.37,12.88-10.54,16.23-.6.33-1.25.5-1.85-.07-.43-.4-.52-1.01-.33-1.54.03-.08.06-.16.09-.24l.04-.1,1.8-3.28c-2.81,1.85-5.97,3.65-7.84,3.55-.09,0-.17,0-.26-.02-.51-.04-.97-.3-1.2-.78-.32-.66-.07-1.21.35-1.69.48-.56,1.17-1.14,1.72-1.64.81-.73,1.61-1.45,2.4-2.2-.73.28-1.46.54-2.2.79-2.15.74-5.21,1.69-7.48,1.57-.09,0-.18,0-.27-.01-.59-.04-1.1-.37-1.29-.96-.25-.8.19-1.29.74-1.7.76-.56,1.65-1.07,2.48-1.54.82-.47,1.66-.93,2.49-1.38-.12.02-.23.03-.35.05-1.66.25-3.35.46-5.03.55-1.32.08-2.87.11-4.16-.18-.11-.02-.22-.05-.33-.08-.6-.16-1.06-.62-1.09-1.28-.03-.67.39-1.15.97-1.37.09-.04.19-.07.28-.1,1.04-.39,2.13-.71,3.2-1.03.98-.29,1.97-.57,2.95-.86ZM121.78,181.78c-.81,6.34-3.99,12.04-9.86,15.23-.4.22-.33.18-.19-.21l4.24-7.7c-.05-.15-.15-.17-.32-.06-2.82,1.95-8.76,6.26-11.12,6.14-.37-.02-.42.02-.16-.27.79-.91,5.73-4.94,7.36-7.35-.02-.3-.18-.39-.48-.28-3.15,1.24-9.96,4.13-13.39,3.95-.43-.02-.44.02-.09-.25,1.85-1.37,7.93-4.4,10.6-6.09.1-.17.01-.27-.26-.3l-.02-.02c-4.4.78-12.14,2.24-15.4,1.52-.53-.12-.46-.08,0-.26,2.71-1.02,9.99-2.89,13.54-4.07.09-.12.14-.23-.16-.35-4.34-.06-12.71.17-16.8-1.05-.5-.15-.5-.12.01-.21,2.23-.38,7.94-.76,12.63-1.31,1.15-.13,2.24-.28,3.2-.44.24-.16.39-.33-.09-.49-4.86-1-13.82-2.56-18.02-4.58-.31-.15-.45-.16-.02-.14,3.94.2,12.94,1.24,17.88,1.5.22-.1.37-.21.03-.39-4.99-1.71-14.16-4.61-18.27-7.06-.32-.19-.52-.24-.02-.16,4.31.74,13.67,3.3,18.74,4.56.29-.05.32-.16.08-.31-4.92-2.55-14.04-6.96-18-9.83-.23-.16-.33-.23-.3-.24.02,0,.16.04.41.11,4.47,1.19,13.76,5.21,18.79,7.52.23-.02.26-.09.11-.23-4.75-3.46-13.43-9.33-17.08-12.73-.43-.4-.3-.29.15-.11,4.44,1.76,13.29,7.04,18.17,10.27.27.18.35-.02.14-.22-4.4-4.16-12.35-11.12-15.46-15.04-.29-.36-.29-.33.11-.11,4.37,2.46,12.55,9.39,17.22,13.25.19.05.26-.02.23-.23-4.26-5.06-11.07-13.6-13.13-17.39-.31-.58-.34-.55.19-.16,3.53,2.69,10.96,10.72,15.21,15.61.11.05.17,0,.18-.13-2.95-5-8.55-14.14-10.36-18.95-.21-.56-.25-.57.17-.11,3.4,3.69,9.14,12.74,12.54,17.66.14.04.21.01.21-.1-2.44-5.28-6.39-14.99-7.46-19.71-.17-.74-.05-.4.25.04,2.75,4.04,7.18,13.45,9.85,18.64.1.08.18.05.26-.08-1.53-5.36-4.09-15.13-4.58-19.7-.06-.6-.06-.51.19-.03,2.23,4.33,5.18,14,6.94,19.23.12.14.23.13.32-.03-.47-5.19-1.58-14.8-1.65-19.16,0-.54,0-.38.16.02,1.79,4.43,3.25,13.91,4.17,19.1.11.19.25.2.39.03.49-4.89.83-13.9,1.23-17.79.06-.53.04-.43.18.02,1.36,4.49,1.51,13.56,1.75,18.43.09.22.23.27.41.14,1.56-4.67,3.31-12.66,4.22-15.38.17-.5.13-.39.19.07.57,4.23-.92,12.45-1.53,16.75.02.2.13.27.32.22,1.72-3.35,4.69-10.27,6.12-12.82.28-.5.2-.27.23.18.21,3.3-2.42,10.7-3.85,14.9,0,.19.02.35.27.32,2.08-2.38,6-7.91,7.64-9.54.3-.29.28-.33.23.1-.35,3.42-4.24,9.72-5.95,12.65-.11.32-.04.5.21.52,2.63-1.24,7.36-5.51,8.38-6.15.33-.21.28-.16.24.2-.23,2.27-5.27,7.37-7.76,9.98-.21.26-.2.42.02.48l8.29-3.12c.4-.08.38-.1.15.23-3.84,5.59-10.12,7.65-16.57,7.39-.03,0-.07,0-.1,0,2.34-.9,4.84-1.52,6.78-3.11.41-.34-.01-.85-.43-.52-1.89,1.55-4.48,2.16-6.73,3.06,2.34-1.84,4.79-3.85,6.31-6.45.27-.46-.31-.8-.58-.34-1.59,2.71-4.25,4.8-6.7,6.69,2.34-2.79,4.3-5.86,5.49-9.36.17-.5-.47-.72-.64-.22-1.18,3.46-3.13,6.5-5.46,9.26,1.85-3.47,3.12-7.33,3.79-11.16.09-.52-.57-.64-.66-.12-.66,3.77-1.91,7.58-3.74,11,1.25-4.01,1.78-8.11,1.69-12.31-.01-.53-.68-.52-.67.01.08,4.03-.41,7.99-1.59,11.85.41-4.12.11-8.27-.71-12.35-.11-.52-.76-.39-.66.13.79,3.94,1.09,7.95.72,11.93-.31-4.13-1.19-8.14-2.56-12.11-.17-.5-.81-.29-.63.22,1.35,3.91,2.22,7.86,2.53,11.93-1.02-4.06-2.45-7.91-4.23-11.78-.22-.48-.83-.2-.61.28,1.79,3.91,3.2,7.69,4.22,11.79-1.74-3.89-3.66-7.55-5.99-11.16-.29-.45-.85-.09-.56.36,2.29,3.56,4.21,7.24,5.92,11.07-2.42-3.5-4.98-6.9-7.58-10.26-.33-.42-.86-.01-.53.41,2.65,3.43,5.1,6.7,7.56,10.27-3.15-2.97-6.02-5.9-9-9.04-.36-.39-.85.08-.49.46,2.93,3.09,5.89,6.14,8.98,9.07-3.52-2.28-6.87-4.74-10.03-7.55-.4-.35-.85.15-.45.5,3.22,2.86,6.53,5.32,10.12,7.63-3.9-1.62-7.42-3.6-11.01-5.97-.45-.29-.81.27-.37.56,3.56,2.35,7.14,4.35,11,5.98-3.97-.92-7.74-2.38-11.4-4.32-.47-.25-.78.35-.31.6,3.71,1.96,7.54,3.45,11.57,4.38-3.99-.24-7.91-1.15-11.68-2.54-.5-.18-.73.44-.23.63,3.9,1.43,7.96,2.37,12.09,2.59-3.99.57-7.97.46-11.95-.24-.53-.09-.64.57-.11.66,4.13.73,8.27.83,12.42.21-3.66,1.29-7.61,1.95-11.45,2.02-.53.01-.52.68.01.67,3.89-.07,7.89-.74,11.61-2.04-3.08,1.88-6.39,3.35-9.99,3.98-.52.09-.41.75.12.66,3.64-.64,6.97-2.1,10.08-3.99-2.25,2.14-4.72,4.44-7.64,5.6-.5.19-.25.82.25.62,2.8-1.11,5.16-3.22,7.34-5.25-1.23,2.09-2.23,4.55-4.05,6.18-.4.36.05.86.45.5,1.87-1.68,2.86-4.06,4.11-6.24,0,.04-.01.09-.02.12ZM123.93,178.79l12.17,15.09c.29.36.28.48.44.18.34-.62.83-1.03,1.46-1.27.3-.11.32-.04,0-.39l-13.09-14.39c-.62-.68-1.55.07-.99.76Z"/>
</svg>